<svg width="91" height="92" viewBox="0 0 91 92" fill="none" xmlns="http://www.w3.org/2000/svg">
<path d="M81.8291 51.5598L82.6798 51.7155L82.5241 52.5662L81.6734 52.4105L81.8291 51.5598Z" fill="#333333"/>
<path d="M79.4026 45.3591L85.4474 45.4361L85.4386 46.1245L79.3938 46.0476L79.4026 45.3591Z" fill="#333333"/>
<path d="M78.0987 37.3242L83.7688 34.5684L83.8845 35.2641L78.6397 37.762L78.619 37.6378L84.3845 38.2707L84.5222 39.0989L79.2733 41.572L79.2526 41.4477L85.0222 42.1055L85.131 42.7598L78.8742 41.9873L78.7365 41.159L83.8211 38.7218L83.8377 38.8212L78.2365 38.1525L78.0987 37.3242Z" fill="#333333"/>
<path d="M76.2605 31.727L81.8911 29.5266L82.1417 30.1679L76.5111 32.3683L76.2605 31.727ZM76.3889 32.0555L76.9519 31.8355L78.205 35.0418L77.6419 35.2618L76.3889 32.0555Z" fill="#333333"/>
<path d="M72.6451 25.6215L79.0306 24.5173L79.3412 25.0359L72.9859 26.1905L72.6451 25.6215ZM75.1131 29.7415L79.1298 24.683L79.4621 25.2376L75.4755 30.3466L75.1131 29.7415ZM75.3365 25.3599L76.9588 28.0682L76.4402 28.3789L74.8179 25.6706L75.3365 25.3599Z" fill="#333333"/>
<path d="M71.39 24.3108L71.6909 19.6655C71.7128 19.3971 71.7447 19.1649 71.7866 18.9689C71.8285 18.7729 71.8868 18.6036 71.9616 18.4608C72.0364 18.318 72.132 18.1942 72.2485 18.0893C72.4397 17.9169 72.6531 17.815 72.8886 17.7837C73.1282 17.7486 73.3664 17.7788 73.6032 17.8743C73.8479 17.9703 74.0715 18.1305 74.2738 18.3551C74.4687 18.5713 74.6032 18.8042 74.6774 19.0538C74.7558 19.2996 74.7691 19.5401 74.7172 19.7752C74.6654 20.0103 74.5376 20.2197 74.3338 20.4033C74.0802 20.6319 73.7676 20.7365 73.396 20.7172C73.0286 20.6941 72.5948 20.5388 72.0945 20.2512L72.1765 19.7026C72.544 19.9516 72.8695 20.0953 73.1529 20.1338C73.4441 20.1728 73.6854 20.106 73.8767 19.9337C74.0596 19.7688 74.1413 19.5709 74.1216 19.34C74.1056 19.1132 74.0133 18.9063 73.8447 18.7192C73.6798 18.5362 73.4913 18.4274 73.279 18.3925C73.0706 18.3619 72.8728 18.4309 72.6857 18.5995C72.6025 18.6744 72.5343 18.766 72.4811 18.8742C72.4317 18.9866 72.3923 19.1352 72.3629 19.3199C72.3334 19.5047 72.3086 19.7531 72.2885 20.0651L71.9802 24.9657L71.39 24.3108ZM69.5571 22.4022C69.2648 22.0779 69.0642 21.7425 68.9554 21.396C68.8466 21.0495 68.8322 20.7158 68.9123 20.395C68.9962 20.0783 69.1732 19.7982 69.4435 19.5546C69.7762 19.2548 70.1722 19.1089 70.6315 19.117C71.0908 19.125 71.5419 19.2911 71.9848 19.6154L71.9203 20.1708C71.6606 19.9829 71.4117 19.8531 71.1736 19.7813C70.9398 19.7057 70.7188 19.6863 70.5108 19.723C70.3066 19.7639 70.1171 19.8631 69.9425 20.0205C69.6389 20.294 69.4937 20.6095 69.5068 20.9669C69.52 21.3243 69.6858 21.6797 70.0043 22.0331C70.2404 22.2951 70.4941 22.4846 70.7654 22.6018C71.0405 22.7231 71.3291 22.7758 71.6312 22.7597C71.9374 22.74 72.2492 22.6512 72.5665 22.4933C72.8876 22.3395 73.2103 22.1165 73.5347 21.8242L73.9787 22.317C73.6752 22.5905 73.3645 22.8102 73.0467 22.976C72.7327 23.146 72.4176 23.2604 72.1015 23.3193C71.7853 23.3781 71.476 23.3819 71.1735 23.3305C70.8789 23.2795 70.5948 23.1775 70.3214 23.0246C70.0479 22.8717 69.7932 22.6642 69.5571 22.4022Z" fill="#333333"/>
<path d="M63.0295 16.9061L68.5294 13.479L69.0125 13.8425L63.5595 17.3049L63.0295 16.9061ZM66.8671 19.7937L68.6837 13.5951L69.2003 13.9838L67.4306 20.2178L66.8671 19.7937ZM65.4244 15.6504L67.947 17.5486L67.5835 18.0317L65.0609 16.1335L65.4244 15.6504Z" fill="#333333"/>
<path d="M58.1474 14.4833L58.3823 14.0187L63.9275 10.9236L63.9969 11.3445L60.6777 9.66594L60.9505 9.12647L64.6144 10.9793L64.3795 11.4439L58.8343 14.539L58.7649 14.1181L62.234 15.8725L61.9612 16.412L58.1474 14.4833Z" fill="#333333"/>
<path d="M55.5873 13.5671L57.5938 7.8645L58.2433 8.09303L56.2368 13.7956L55.5873 13.5671Z" fill="#333333"/>
<path d="M49.8819 12.3266L51.1233 6.41016L51.7971 6.55154L50.5558 12.468L49.8819 12.3266ZM50.7598 9.8599L50.884 9.26825L54.0723 9.93722L53.9482 10.5289L50.7598 9.8599ZM51.3443 7.07422L51.4684 6.48257L54.8869 7.19982L54.7627 7.79147L51.3443 7.07422Z" fill="#333333"/>
<path d="M44.356 12.0471L44.621 6.00757L45.3089 6.03776L45.0438 12.0773L44.356 12.0471ZM44.7083 12.0625L44.7348 11.4586L48.174 11.6095L48.1475 12.2135L44.7083 12.0625Z" fill="#333333"/>
<path d="M37.3755 12.9451L38.8898 6.64423L39.489 6.56429L38.033 12.8574L37.3755 12.9451ZM42.136 12.3101L39.0812 6.61869L39.7221 6.53321L42.8351 12.2168L42.136 12.3101ZM38.2009 10.37L41.3302 9.95259L41.4102 10.5518L38.2809 10.9693L38.2009 10.37Z" fill="#333333"/>
<path d="M31.505 11.8869L31.2062 11.0753L32.0178 10.7766L32.3165 11.5882L31.505 11.8869Z" fill="#333333"/>
<path d="M27.4294 17.1461L24.4043 11.9122L25.0004 11.5676L28.0255 16.8016L27.4294 17.1461Z" fill="#333333"/>
<path d="M21.2079 22.3792L15.9345 18.9245L16.4725 18.4684L21.3063 21.6904L21.2103 21.7718L18.7973 16.4975L19.4377 15.9545L24.2524 19.1928L24.1563 19.2742L21.7626 13.9836L22.2685 13.5547L24.8136 19.3224L24.1732 19.8654L19.4735 16.7498L19.5503 16.6846L21.8483 21.8363L21.2079 22.3792Z" fill="#333333"/>
<path d="M17.3187 26.8329L12.5552 23.1106L12.9791 22.5681L17.7426 26.2904L17.3187 26.8329ZM17.5358 26.555L17.0595 26.1828L19.1791 23.4702L19.6554 23.8425L17.5358 26.555Z" fill="#333333"/>
<path d="M13.9081 33.0569L9.70318 28.1261L9.99099 27.5944L14.2239 32.4735L13.9081 33.0569ZM16.1946 28.8334L9.79512 27.9562L10.1029 27.3877L16.5304 28.2132L16.1946 28.8334ZM12.3111 30.8747L13.8141 28.0984L14.3458 28.3862L12.8427 31.1625L12.3111 30.8747Z" fill="#333333"/>
<path d="M13.4312 34.7919L9.28692 36.9119C9.04519 37.0305 8.82942 37.122 8.63962 37.1863C8.44981 37.2507 8.27445 37.2873 8.11353 37.2962C7.95261 37.305 7.79727 37.2863 7.64753 37.24C7.40153 37.164 7.20479 37.0328 7.05729 36.8466C6.90444 36.6588 6.80843 36.4387 6.76925 36.1863C6.72637 35.927 6.74957 35.653 6.83883 35.3642C6.9248 35.0861 7.05597 34.8513 7.23236 34.6597C7.4034 34.4665 7.60317 34.332 7.83168 34.2562C8.06018 34.1803 8.30545 34.1829 8.56749 34.2639C8.89371 34.3648 9.14364 34.5797 9.3173 34.9087C9.4856 35.2361 9.57432 35.6883 9.58345 36.2653L9.07019 36.4758C9.09587 36.0326 9.05271 35.6794 8.9407 35.4163C8.825 35.1462 8.64415 34.9731 8.39814 34.8971C8.16284 34.8243 7.95106 34.8555 7.76281 34.9907C7.57622 35.1205 7.44572 35.3057 7.37133 35.5464C7.2986 35.7817 7.30161 35.9994 7.38036 36.1995C7.46077 36.3942 7.6213 36.5288 7.86195 36.6032C7.96891 36.6363 8.08248 36.6479 8.20266 36.6382C8.3245 36.6232 8.47229 36.581 8.64605 36.5116C8.81981 36.4423 9.04588 36.3364 9.32427 36.194L13.6915 33.9496L13.4312 34.7919ZM12.7303 37.3435C12.6014 37.7607 12.4159 38.1047 12.174 38.3756C11.9321 38.6464 11.6528 38.8296 11.3362 38.9251C11.0213 39.0152 10.69 39.0066 10.3424 38.8991C9.91456 38.7669 9.5865 38.5014 9.3582 38.1027C9.12991 37.7041 9.04163 37.2315 9.09337 36.6851L9.60357 36.4561C9.57517 36.7754 9.59106 37.0557 9.65124 37.2969C9.70608 37.5365 9.80253 37.7362 9.94059 37.8961C10.0803 38.0506 10.2625 38.1626 10.4871 38.232C10.8775 38.3527 11.2228 38.3159 11.5231 38.1216C11.8233 37.9273 12.0437 37.6029 12.1842 37.1484C12.2884 36.8115 12.3213 36.4965 12.283 36.2034C12.2464 35.905 12.1438 35.6301 11.9754 35.3789C11.8017 35.126 11.5657 34.9036 11.2676 34.7119C10.9712 34.5148 10.6144 34.3518 10.1972 34.2228L10.3931 33.5891C10.7835 33.7098 11.1313 33.8642 11.4364 34.0522C11.7432 34.2349 12.0028 34.447 12.2152 34.6884C12.4277 34.9299 12.5893 35.1937 12.7 35.4798C12.8071 35.759 12.8649 36.0552 12.8736 36.3684C12.8822 36.6816 12.8345 37.0066 12.7303 37.3435Z" fill="#333333"/>
<path d="M11.3636 45.7563L5.59923 42.7956L5.6632 42.1945L11.4338 45.0968L11.3636 45.7563ZM11.8718 40.9806L5.61966 42.6036L5.68808 41.9607L11.9464 40.2793L11.8718 40.9806ZM9.05663 44.3456L9.39068 41.2063L9.99182 41.2703L9.65777 44.4096L9.05663 44.3456Z" fill="#333333"/>
<path d="M11.7638 51.2199L11.2444 51.2544L5.75639 48.059L6.08321 47.7848L6.3294 51.4962L5.72619 51.5362L5.45444 47.4395L5.97387 47.405L11.4619 50.6004L11.135 50.8745L10.8777 46.9956L11.4809 46.9556L11.7638 51.2199Z" fill="#333333"/>
<path d="M12.2863 53.8689L6.36087 55.067L6.22442 54.3922L12.1498 53.1941L12.2863 53.8689Z" fill="#333333"/>
<path d="M14.1349 59.4225L8.41314 61.3738L8.19092 60.7221L13.9127 58.7709L14.1349 59.4225ZM11.5655 59.9262L10.9933 60.1213L9.94183 57.0379L10.514 56.8428L11.5655 59.9262ZM8.8715 60.8449L8.29932 61.04L7.17195 57.7341L7.74413 57.539L8.8715 60.8449Z" fill="#333333"/>
<path d="M16.7189 64.2994L11.396 67.1652L11.0696 66.5589L16.3925 63.6931L16.7189 64.2994ZM16.5517 63.9888L16.0194 64.2754L14.3875 61.2443L14.9198 60.9578L16.5517 63.9888Z" fill="#333333"/>
<path d="M21.0665 69.8306L14.8802 71.7601L14.5044 71.2865L20.6542 69.311L21.0665 69.8306ZM18.0811 66.0686L14.7601 71.6088L14.3582 71.1024L17.6427 65.5161L18.0811 66.0686ZM18.4324 70.4418L16.4699 67.9688L16.9435 67.5931L18.9059 70.066L18.4324 70.4418Z" fill="#333333"/>
<path d="M23.1691 75.4293L22.6231 76.1L21.9524 75.5539L22.4984 74.8833L23.1691 75.4293Z" fill="#333333"/>
<path d="M29.7706 76.2495L26.8125 81.5216L26.212 81.1847L29.1702 75.9126L29.7706 76.2495Z" fill="#333333"/>
<path d="M37.4406 78.9174L37.1682 85.2159L36.5011 84.9867L36.7982 79.1851L36.9173 79.226L33.6186 83.9967L32.8245 83.7239L33.1454 77.9304L33.2645 77.9713L29.9419 82.7338L29.3146 82.5183L32.9698 77.3818L33.7639 77.6546L33.4896 83.2865L33.3943 83.2538L36.6465 78.6447L37.4406 78.9174Z" fill="#333333"/>
<path d="M43.2482 79.9727L42.4952 85.9709L41.8121 85.8852L42.5651 79.8869L43.2482 79.9727ZM42.8983 79.9288L42.823 80.5286L39.4073 80.0998L39.4826 79.5L42.8983 79.9288Z" fill="#333333"/>
<path d="M50.3205 79.6892L48.2607 85.8334L47.6568 85.8606L49.6578 79.7191L50.3205 79.6892ZM45.5227 79.9053L48.0678 85.8421L47.4219 85.8712L44.8181 79.9371L45.5227 79.9053ZM49.2729 82.1822L46.1191 82.3242L46.0919 81.7203L49.2457 81.5783L49.2729 82.1822Z" fill="#333333"/>
<path d="M52.1146 79.2156L56.0426 81.7135C56.2674 81.8618 56.4557 82.0014 56.6073 82.1324C56.759 82.2634 56.8795 82.396 56.9687 82.5302C57.0578 82.6644 57.1204 82.8078 57.1564 82.9604C57.2156 83.211 57.2023 83.447 57.1165 83.6686C57.032 83.8956 56.891 84.0899 56.6933 84.2515C56.4915 84.4199 56.2435 84.5389 55.9493 84.6083C55.666 84.6751 55.3971 84.6811 55.1426 84.6261C54.8894 84.5766 54.6722 84.4726 54.491 84.314C54.3098 84.1555 54.1877 83.9428 54.1247 83.6758C54.0463 83.3435 54.1049 83.0191 54.3005 82.7026C54.4974 82.3916 54.8422 82.0859 55.335 81.7856L55.7766 82.1214C55.3815 82.3239 55.099 82.5401 54.9289 82.77C54.7547 83.0066 54.6972 83.2503 54.7563 83.5009C54.8129 83.7406 54.9471 83.9073 55.159 84.0011C55.3655 84.0962 55.5913 84.1148 55.8365 84.0569C56.0762 84.0003 56.2623 83.8874 56.3949 83.7181C56.522 83.5501 56.5567 83.3435 56.4988 83.0983C56.4731 82.9894 56.4256 82.8855 56.3563 82.7869C56.2816 82.6895 56.1703 82.5835 56.0225 82.4688C55.8746 82.3542 55.6688 82.213 55.4049 82.0452L51.2565 79.4181L52.1146 79.2156ZM54.6694 78.5264C55.0944 78.4261 55.4849 78.4116 55.841 78.4829C56.1972 78.5541 56.4966 78.702 56.7394 78.9265C56.9767 79.1523 57.1372 79.4423 57.2207 79.7964C57.3236 80.2322 57.261 80.6496 57.0331 81.0484C56.8051 81.4473 56.4425 81.7629 55.9452 81.9953L55.4893 81.6716C55.7789 81.5342 56.0125 81.3784 56.1899 81.2043C56.3687 81.0356 56.4919 80.8512 56.5597 80.6512C56.6221 80.4524 56.6263 80.2386 56.5723 80.0098C56.4785 79.6121 56.2717 79.3331 55.9521 79.1727C55.6324 79.0123 55.241 78.9868 54.778 79.0961C54.4348 79.1771 54.1465 79.3083 53.9133 79.4899C53.6747 79.6727 53.4897 79.9004 53.3585 80.1729C53.2285 80.4509 53.1565 80.767 53.1423 81.1212C53.1226 81.4766 53.1629 81.8668 53.2632 82.2917L52.6176 82.4441C52.5238 82.0464 52.4806 81.6684 52.4881 81.31C52.4901 80.953 52.5413 80.6217 52.6417 80.3162C52.7422 80.0107 52.8877 79.7377 53.0782 79.4972C53.2646 79.2634 53.4906 79.0634 53.7562 78.8972C54.0218 78.731 54.3262 78.6074 54.6694 78.5264Z" fill="#333333"/>
<path d="M62.5534 75.4124L62.9689 81.8793L62.4201 82.1328L61.9512 75.6905L62.5534 75.4124ZM58.1932 77.4259L62.7936 81.9603L62.2066 82.2313L57.5529 77.7217L58.1932 77.4259ZM62.5259 78.1163L59.6597 79.44L59.4063 78.8911L62.2724 77.5675L62.5259 78.1163Z" fill="#333333"/>
<path d="M67.0194 72.2646L67.3163 72.6923L67.4005 79.0422L66.9973 78.903L70.0529 76.7821L70.3976 77.2787L67.0247 79.6199L66.7279 79.1923L66.6436 72.8423L67.0468 72.9815L63.8533 75.1982L63.5086 74.7016L67.0194 72.2646Z" fill="#333333"/>
<path d="M69.044 70.4485L73.1046 74.927L72.5946 75.3895L68.5339 70.9109L69.044 70.4485Z" fill="#333333"/>
<path d="M72.877 66.02L77.4767 69.9428L77.0299 70.4667L72.4302 66.5439L72.877 66.02ZM74.6222 67.9719L75.0822 68.3642L72.9682 70.8429L72.5082 70.4506L74.6222 67.9719ZM76.7879 69.8189L77.2479 70.2111L74.9814 72.8688L74.5214 72.4765L76.7879 69.8189Z" fill="#333333"/>
<path d="M75.7579 61.3069L80.9367 64.4255L80.5815 65.0153L75.4027 61.8967L75.7579 61.3069ZM75.5759 61.609L76.0938 61.9208L74.3179 64.8699L73.8001 64.558L75.5759 61.609Z" fill="#333333"/>
<path d="M78.3237 54.7393L83.1261 59.0902L82.9088 59.6543L78.0853 55.3582L78.3237 54.7393ZM76.5975 59.221L83.0567 59.2704L82.8243 59.8737L76.3441 59.8792L76.5975 59.221ZM80.1873 56.6987L79.0526 59.6447L78.4885 59.4274L79.6231 56.4814L80.1873 56.6987Z" fill="#333333"/>
<path d="M45.3976 75.2065C61.5116 75.2064 74.5744 62.1438 74.5744 46.0298C74.5743 29.9159 61.5115 16.8531 45.3976 16.853C29.2836 16.853 16.2209 29.9158 16.2208 46.0298H15.8009C15.801 29.684 29.0518 16.4331 45.3976 16.4331C61.7434 16.4332 74.9942 29.684 74.9943 46.0298C74.9943 62.3756 61.7434 75.6264 45.3976 75.6265C29.0517 75.6265 15.8009 62.3757 15.8009 46.0298H16.2208C16.2208 62.1438 29.2836 75.2065 45.3976 75.2065Z" fill="#333333"/>
<path d="M45.3975 90.7401C70.0903 90.7401 90.1076 70.7228 90.1076 46.0301C90.1075 21.3374 70.0902 1.32011 45.3975 1.32007C20.7048 1.32007 0.687541 21.3374 0.687501 46.0301H0.267578C0.267618 21.1055 20.4729 0.900145 45.3975 0.900146C70.3221 0.900187 90.5274 21.1055 90.5275 46.0301C90.5275 70.9547 70.3221 91.16 45.3975 91.16C20.4729 91.16 0.267577 70.9547 0.267578 46.0301H0.687501C0.6875 70.7229 20.7048 90.7401 45.3975 90.7401Z" fill="#333333"/>
</svg>
