<svg width="111" height="18" viewBox="0 0 111 18" fill="none" xmlns="http://www.w3.org/2000/svg">
<path d="M0.085968 16.244L0.434486 7.40904L1.39224 7.13568L6.36328 14.4523L5.21513 14.78L1.79708 9.55965C1.76742 9.51404 1.72293 9.44562 1.66362 9.3544C1.60705 9.25823 1.54993 9.16014 1.49227 9.06012C1.4346 8.96011 1.38765 8.87576 1.35141 8.80707C1.35688 8.88454 1.36152 8.98097 1.36534 9.09635C1.36915 9.21174 1.37187 9.32328 1.37349 9.43097C1.37896 9.53756 1.37976 9.62052 1.3759 9.67986L1.24565 15.913L0.085968 16.244ZM0.999772 13.8929L1.02561 12.8248L3.75462 12.0459L4.34036 12.9394L0.999772 13.8929Z" fill="#A01D22"/>
<path d="M7.49438 11.1137L7.12659 9.61002L9.13726 5.12796L10.402 4.81861L7.49438 11.1137ZM7.37969 14.2055L5.3839 6.04602L6.48543 5.77659L8.48122 13.9361L7.37969 14.2055ZM11.6692 13.1563L8.1474 9.18738L8.66675 8.07823L12.9398 12.8455L11.6692 13.1563Z" fill="#A01D22"/>
<path d="M13.4581 12.7359L14.4842 3.95386L15.4601 3.75486L19.8545 11.4317L18.6846 11.6702L15.6776 6.20277C15.6515 6.15502 15.6124 6.08338 15.5603 5.98787C15.5113 5.88765 15.4618 5.78546 15.412 5.68131C15.3622 5.57716 15.3219 5.48945 15.291 5.41818C15.2905 5.49585 15.2878 5.59235 15.2827 5.70768C15.2776 5.82302 15.2718 5.93444 15.2651 6.04193C15.2624 6.14863 15.2568 6.23141 15.2484 6.29028L14.6398 12.495L13.4581 12.7359ZM14.5498 10.462L14.6576 9.399L17.4384 8.83198L17.9538 9.76788L14.5498 10.462Z" fill="#A01D22"/>
<path d="M20.8812 11.2666L19.5329 2.97548L21.5168 2.65284C22.1643 2.54754 22.7284 2.57737 23.2091 2.74235C23.6932 2.90274 24.1038 3.16016 24.4411 3.51462C24.7816 3.86448 25.0533 4.27623 25.2559 4.74984C25.4619 5.21886 25.6069 5.71197 25.691 6.22918C25.7681 6.70295 25.7888 7.19196 25.7533 7.6962C25.7178 8.20044 25.5972 8.68002 25.3916 9.13493C25.1899 9.58919 24.8802 9.97793 24.4627 10.3011C24.0491 10.6237 23.5008 10.8405 22.8178 10.9516L20.8812 11.2666ZM21.832 10.0481L22.7144 9.90464C23.1605 9.83208 23.5169 9.68092 23.7835 9.45115C24.0533 9.21679 24.2504 8.93349 24.3747 8.60123C24.5029 8.26833 24.5747 7.91219 24.59 7.53282C24.6053 7.15344 24.5834 6.78214 24.5243 6.41891C24.4608 6.02805 24.3577 5.65577 24.2151 5.30207C24.0757 4.94379 23.8951 4.63072 23.6733 4.36286C23.4508 4.09105 23.1872 3.89076 22.8826 3.76199C22.5779 3.63322 22.2282 3.60094 21.8334 3.66514L20.8207 3.82983L21.832 10.0481Z" fill="#A01D22"/>
<path d="M34.5764 9.38385L33.8779 1.01294L35.8809 0.845801C36.5347 0.791251 37.0947 0.864935 37.5611 1.06685C38.0312 1.26445 38.4205 1.55307 38.7292 1.93272C39.0415 2.30805 39.2802 2.7397 39.4453 3.22765C39.6141 3.71129 39.7203 4.2142 39.7639 4.73639C39.8038 5.21473 39.7864 5.70387 39.7117 6.20381C39.6371 6.70375 39.4795 7.17248 39.239 7.60999C39.0026 8.04716 38.6636 8.41061 38.2222 8.70032C37.7847 8.9897 37.2212 9.16316 36.5316 9.2207L34.5764 9.38385ZM35.6192 8.24319L36.5101 8.16885C36.9605 8.13126 37.3275 8.00832 37.6112 7.80001C37.8985 7.58738 38.1171 7.32028 38.2668 6.99871C38.4206 6.67681 38.5199 6.32734 38.5647 5.95031C38.6095 5.57328 38.6166 5.2014 38.586 4.83468C38.5531 4.44005 38.4793 4.06087 38.3646 3.69714C38.2537 3.3291 38.098 3.00291 37.8977 2.71859C37.697 2.43028 37.4498 2.21007 37.1562 2.05796C36.8625 1.90585 36.5163 1.84643 36.1177 1.87969L35.0953 1.96501L35.6192 8.24319Z" fill="#A01D22"/>
<path d="M40.8155 8.87867L43.1723 0.356754L44.1672 0.30932L47.3361 8.56777L46.1435 8.62464L44.0078 2.76169C43.9894 2.71051 43.9617 2.63375 43.9248 2.53139C43.8916 2.42484 43.8584 2.3163 43.8251 2.20576C43.7918 2.09522 43.7654 2.00238 43.7458 1.92723C43.7334 2.0039 43.7159 2.09884 43.6933 2.21205C43.6706 2.32526 43.6478 2.43447 43.6248 2.53968C43.6058 2.64471 43.5876 2.72566 43.5703 2.78255L42.0201 8.82123L40.8155 8.87867ZM42.2421 6.79837L42.5111 5.76438L45.3459 5.62922L45.7121 6.63292L42.2421 6.79837Z" fill="#A01D22"/>
<path d="M48.3822 8.56085L48.3121 0.16114L49.416 0.151926L52.2716 5.84029C52.3041 5.89602 52.3447 5.97169 52.3935 6.06728C52.4423 6.16288 52.481 6.24656 52.5096 6.31832C52.5047 6.20636 52.4999 6.1124 52.4952 6.03643C52.4906 5.96047 52.488 5.89249 52.4875 5.83249L52.4399 0.126689L53.5199 0.117676L53.59 8.51738L52.516 8.52635L49.6429 2.88613C49.6103 2.8224 49.5697 2.74273 49.5209 2.64714C49.472 2.54754 49.4293 2.4639 49.3928 2.3962C49.4095 2.48806 49.4183 2.57599 49.419 2.65999C49.4196 2.73999 49.4202 2.81398 49.4208 2.88198L49.4681 8.55178L48.3822 8.56085Z" fill="#A01D22"/>
<path d="M62.797 8.84434L62.0603 0.376942L63.114 0.446893L63.5038 5.89669C63.5113 5.96533 63.5177 6.04994 63.523 6.15052C63.5324 6.25136 63.5379 6.34994 63.5395 6.44626C63.557 6.36324 63.5792 6.2705 63.6061 6.16806C63.6332 6.06162 63.6551 5.97288 63.6718 5.90183L64.9998 0.572089L65.7302 0.620577L66.3511 6.03159C66.3618 6.11248 66.3722 6.19735 66.3823 6.28622C66.3927 6.37109 66.401 6.45783 66.4071 6.54644C66.4297 6.44771 66.4477 6.35871 66.461 6.27941C66.4785 6.19639 66.4935 6.12122 66.506 6.0539L67.5622 0.742196L68.6578 0.814929L66.8022 9.11023L65.8922 9.04982L65.2513 3.57735C65.2417 3.4805 65.2319 3.38565 65.2221 3.29279C65.2125 3.19594 65.2049 3.09922 65.1992 3.00264C65.1809 3.09763 65.1607 3.1905 65.1386 3.28124C65.1208 3.36825 65.0989 3.45699 65.0729 3.54746L63.707 8.90475L62.797 8.84434Z" fill="#A01D22"/>
<path d="M68.443 9.23756L72.0988 1.18693L73.0889 1.29508L74.9324 9.94641L73.7454 9.81676L72.5493 3.69267C72.5391 3.63924 72.5237 3.55909 72.5032 3.45223C72.4871 3.34183 72.4712 3.22944 72.4555 3.11506C72.4398 3.00069 72.4282 2.90485 72.4205 2.82756C72.3964 2.90138 72.3643 2.99243 72.3243 3.10073C72.2843 3.20903 72.2447 3.31335 72.2056 3.41369C72.1704 3.51447 72.1399 3.59161 72.1139 3.64511L69.6418 9.36851L68.443 9.23756ZM70.1762 7.40493L70.6031 6.42549L73.4243 6.73366L73.6297 7.78216L70.1762 7.40493Z" fill="#A01D22"/>
<path d="M75.9673 10.0983L77.1742 1.78547L78.2964 1.9484L77.2456 9.18651L81.1704 9.75635L81.0144 10.8311L75.9673 10.0983Z" fill="#A01D22"/>
<path d="M84.8012 11.5114L86.3507 3.25559L87.4652 3.46477L85.9158 11.7206L84.8012 11.5114ZM82.9555 11.165L83.1447 10.1566L87.9567 11.0598L87.7674 12.0681L82.9555 11.165ZM84.3157 3.91756L84.5049 2.90917L89.3169 3.81229L89.1277 4.82069L84.3157 3.91756Z" fill="#A01D22"/>
<path d="M89.5892 12.4516L91.4461 4.25938L92.5988 4.52067L92.727 9.60068C92.7328 9.77425 92.7358 9.93284 92.7361 10.0765C92.7372 10.2162 92.7315 10.3502 92.7188 10.4786C92.7627 10.3573 92.8153 10.2338 92.8765 10.1083C92.9426 9.97971 93.0137 9.83792 93.0898 9.68292L95.4134 5.15864L96.5252 5.41064L94.6684 13.6028L93.6736 13.3774L94.7997 8.40938C94.8191 8.32356 94.8448 8.21042 94.8766 8.06999C94.9132 7.92653 94.9502 7.79957 94.9875 7.68909C94.9337 7.79993 94.8751 7.91379 94.8117 8.03066C94.753 8.14452 94.6944 8.25838 94.6358 8.37224L92.2049 13.0444L92.0527 13.01L91.8739 7.74621C91.874 7.61909 91.8702 7.49108 91.8625 7.36219C91.8596 7.23028 91.8558 7.10228 91.8511 6.97817C91.8332 7.09307 91.8099 7.22313 91.7811 7.36835C91.7532 7.50968 91.7295 7.62325 91.71 7.70907L90.584 12.6771L89.5892 12.4516Z" fill="#A01D22"/>
<path d="M95.6842 13.8505L100.527 6.45306L101.489 6.71124L101.989 15.5427L100.836 15.2332L100.59 8.99823C100.588 8.94386 100.585 8.8623 100.581 8.75356C100.582 8.642 100.583 8.5285 100.585 8.41307C100.587 8.29764 100.59 8.20115 100.595 8.1236C100.559 8.19285 100.514 8.27794 100.458 8.37885C100.402 8.47976 100.347 8.57681 100.293 8.67C100.242 8.76423 100.2 8.83579 100.167 8.88469L96.849 14.1631L95.6842 13.8505ZM97.6772 12.3043L98.2487 11.4016L100.99 12.1372L101.032 13.2048L97.6772 12.3043Z" fill="#A01D22"/>
<path d="M102.987 15.857L105.496 7.84065L106.579 8.17945L105.528 11.5349L108.334 12.4132L109.384 9.05781L110.467 9.39661L107.957 17.413L106.875 17.0742L108.015 13.4324L105.209 12.5541L104.069 16.1958L102.987 15.857Z" fill="#A01D22"/>
</svg>
