<svg width="91" height="92" viewBox="0 0 91 92" fill="none" xmlns="http://www.w3.org/2000/svg">
<path d="M81.8291 51.5278L82.6798 51.6835L82.5241 52.5342L81.6734 52.3785L81.8291 51.5278Z" fill="#A01D22"/>
<path d="M79.4026 45.3271L85.4474 45.4041L85.4386 46.0926L79.3938 46.0156L79.4026 45.3271Z" fill="#A01D22"/>
<path d="M78.0987 37.2923L83.7688 34.5364L83.8845 35.2321L78.6397 37.73L78.619 37.6058L84.3845 38.2387L84.5222 39.0669L79.2733 41.54L79.2526 41.4157L85.0222 42.0735L85.131 42.7278L78.8742 41.9553L78.7365 41.1271L83.8211 38.6898L83.8377 38.7892L78.2365 38.1205L78.0987 37.2923Z" fill="#A01D22"/>
<path d="M76.2605 31.6951L81.8911 29.4946L82.1417 30.1359L76.5111 32.3363L76.2605 31.6951ZM76.3889 32.0235L76.9519 31.8035L78.205 35.0098L77.6419 35.2298L76.3889 32.0235Z" fill="#A01D22"/>
<path d="M72.6451 25.5895L79.0306 24.4854L79.3412 25.004L72.9859 26.1586L72.6451 25.5895ZM75.1131 29.7096L79.1298 24.651L79.4621 25.2056L75.4755 30.3146L75.1131 29.7096ZM75.3365 25.328L76.9588 28.0362L76.4402 28.3469L74.8179 25.6386L75.3365 25.328Z" fill="#A01D22"/>
<path d="M71.39 24.2788L71.6909 19.6335C71.7128 19.3651 71.7447 19.1329 71.7866 18.9369C71.8285 18.7409 71.8868 18.5716 71.9616 18.4288C72.0364 18.2861 72.132 18.1622 72.2485 18.0573C72.4397 17.8849 72.6531 17.7831 72.8886 17.7517C73.1282 17.7166 73.3664 17.7468 73.6032 17.8424C73.8479 17.9383 74.0715 18.0985 74.2738 18.3231C74.4687 18.5393 74.6032 18.7722 74.6774 19.0218C74.7558 19.2676 74.7691 19.5081 74.7172 19.7432C74.6654 19.9783 74.5376 20.1877 74.3338 20.3713C74.0802 20.5999 73.7676 20.7045 73.396 20.6852C73.0286 20.6622 72.5948 20.5068 72.0945 20.2192L72.1765 19.6706C72.544 19.9196 72.8695 20.0633 73.1529 20.1019C73.4441 20.1408 73.6854 20.074 73.8767 19.9017C74.0596 19.7368 74.1413 19.5389 74.1216 19.308C74.1056 19.0813 74.0133 18.8743 73.8447 18.6872C73.6798 18.5043 73.4913 18.3954 73.279 18.3606C73.0706 18.3299 72.8728 18.3989 72.6857 18.5675C72.6025 18.6425 72.5343 18.734 72.4811 18.8423C72.4317 18.9546 72.3923 19.1032 72.3629 19.2879C72.3334 19.4727 72.3086 19.7211 72.2885 20.0331L71.9802 24.9337L71.39 24.2788ZM69.5571 22.3703C69.2648 22.0459 69.0642 21.7105 68.9554 21.364C68.8466 21.0175 68.8322 20.6838 68.9123 20.363C68.9962 20.0463 69.1732 19.7662 69.4435 19.5226C69.7762 19.2228 70.1722 19.077 70.6315 19.085C71.0908 19.093 71.5419 19.2591 71.9848 19.5834L71.9203 20.1389C71.6606 19.951 71.4117 19.8211 71.1736 19.7493C70.9398 19.6737 70.7188 19.6543 70.5108 19.691C70.3066 19.732 70.1171 19.8311 69.9425 19.9885C69.6389 20.262 69.4937 20.5775 69.5068 20.9349C69.52 21.2923 69.6858 21.6477 70.0043 22.0011C70.2404 22.2631 70.4941 22.4527 70.7654 22.5698C71.0405 22.6911 71.3291 22.7438 71.6312 22.7278C71.9374 22.708 72.2492 22.6192 72.5665 22.4613C72.8876 22.3076 73.2103 22.0845 73.5347 21.7923L73.9787 22.285C73.6752 22.5586 73.3645 22.7782 73.0467 22.944C72.7327 23.114 72.4176 23.2284 72.1015 23.2873C71.7853 23.3461 71.476 23.3499 71.1735 23.2985C70.8789 23.2475 70.5948 23.1455 70.3214 22.9926C70.0479 22.8397 69.7932 22.6322 69.5571 22.3703Z" fill="#A01D22"/>
<path d="M63.0295 16.8741L68.5294 13.447L69.0125 13.8105L63.5595 17.2729L63.0295 16.8741ZM66.8671 19.7618L68.6837 13.5631L69.2003 13.9519L67.4306 20.1858L66.8671 19.7618ZM65.4244 15.6184L67.947 17.5166L67.5835 17.9997L65.0609 16.1015L65.4244 15.6184Z" fill="#A01D22"/>
<path d="M58.1474 14.4513L58.3823 13.9868L63.9275 10.8917L63.9969 11.3125L60.6777 9.63396L60.9505 9.09448L64.6144 10.9474L64.3795 11.4119L58.8343 14.507L58.7649 14.0861L62.234 15.8405L61.9612 16.38L58.1474 14.4513Z" fill="#A01D22"/>
<path d="M55.5873 13.5351L57.5938 7.83252L58.2433 8.06104L56.2368 13.7636L55.5873 13.5351Z" fill="#A01D22"/>
<path d="M49.8819 12.2947L51.1233 6.37818L51.7971 6.51956L50.5558 12.436L49.8819 12.2947ZM50.7598 9.82792L50.884 9.23627L54.0723 9.90524L53.9482 10.4969L50.7598 9.82792ZM51.3443 7.04224L51.4684 6.45059L54.8869 7.16784L54.7627 7.75948L51.3443 7.04224Z" fill="#A01D22"/>
<path d="M44.356 12.0151L44.621 5.97559L45.3089 6.00577L45.0438 12.0453L44.356 12.0151ZM44.7083 12.0306L44.7348 11.4266L48.174 11.5775L48.1475 12.1815L44.7083 12.0306Z" fill="#A01D22"/>
<path d="M37.3755 12.9131L38.8898 6.61225L39.489 6.53231L38.033 12.8254L37.3755 12.9131ZM42.136 12.2781L39.0812 6.58671L39.7221 6.50122L42.8351 12.1848L42.136 12.2781ZM38.2009 10.338L41.3302 9.9206L41.4102 10.5198L38.2809 10.9373L38.2009 10.338Z" fill="#A01D22"/>
<path d="M31.505 11.8549L31.2062 11.0434L32.0178 10.7446L32.3165 11.5562L31.505 11.8549Z" fill="#A01D22"/>
<path d="M27.4294 17.1141L24.4043 11.8802L25.0004 11.5356L28.0255 16.7696L27.4294 17.1141Z" fill="#A01D22"/>
<path d="M21.2079 22.3473L15.9345 18.8925L16.4725 18.4364L21.3063 21.6584L21.2103 21.7398L18.7973 16.4655L19.4377 15.9226L24.2524 19.1608L24.1563 19.2422L21.7626 13.9516L22.2685 13.5227L24.8136 19.2904L24.1732 19.8334L19.4735 16.7178L19.5503 16.6526L21.8483 21.8043L21.2079 22.3473Z" fill="#A01D22"/>
<path d="M17.3187 26.8009L12.5552 23.0786L12.9791 22.5361L17.7426 26.2584L17.3187 26.8009ZM17.5358 26.523L17.0595 26.1508L19.1791 23.4383L19.6554 23.8105L17.5358 26.523Z" fill="#A01D22"/>
<path d="M13.9081 33.0249L9.70318 28.0941L9.99099 27.5625L14.2239 32.4416L13.9081 33.0249ZM16.1946 28.8014L9.79512 27.9243L10.1029 27.3557L16.5304 28.1812L16.1946 28.8014ZM12.3111 30.8427L13.8141 28.0664L14.3458 28.3542L12.8427 31.1305L12.3111 30.8427Z" fill="#A01D22"/>
<path d="M13.4312 34.7599L9.28692 36.8799C9.04519 36.9985 8.82942 37.09 8.63962 37.1544C8.44981 37.2187 8.27445 37.2553 8.11353 37.2642C7.95261 37.273 7.79727 37.2543 7.64753 37.208C7.40153 37.132 7.20479 37.0008 7.05729 36.8146C6.90444 36.6268 6.80843 36.4067 6.76925 36.1544C6.72637 35.895 6.74957 35.621 6.83883 35.3322C6.9248 35.0541 7.05597 34.8193 7.23236 34.6277C7.4034 34.4345 7.60317 34.3 7.83168 34.2242C8.06018 34.1484 8.30545 34.1509 8.56749 34.2319C8.89371 34.3328 9.14364 34.5477 9.3173 34.8768C9.4856 35.2042 9.57432 35.6563 9.58345 36.2333L9.07019 36.4438C9.09587 36.0006 9.05271 35.6474 8.9407 35.3843C8.825 35.1142 8.64415 34.9411 8.39814 34.8651C8.16284 34.7923 7.95106 34.8235 7.76281 34.9587C7.57622 35.0885 7.44572 35.2737 7.37133 35.5144C7.2986 35.7497 7.30161 35.9674 7.38036 36.1675C7.46077 36.3623 7.6213 36.4968 7.86195 36.5712C7.96891 36.6043 8.08248 36.616 8.20266 36.6062C8.3245 36.5912 8.47229 36.549 8.64605 36.4797C8.81981 36.4103 9.04588 36.3044 9.32427 36.162L13.6915 33.9176L13.4312 34.7599ZM12.7303 37.3115C12.6014 37.7287 12.4159 38.0727 12.174 38.3436C11.9321 38.6145 11.6528 38.7976 11.3362 38.8931C11.0213 38.9833 10.69 38.9746 10.3424 38.8671C9.91456 38.7349 9.5865 38.4694 9.3582 38.0708C9.12991 37.6721 9.04163 37.1995 9.09337 36.6531L9.60357 36.4241C9.57517 36.7434 9.59106 37.0237 9.65124 37.2649C9.70608 37.5045 9.80253 37.7042 9.94059 37.8641C10.0803 38.0186 10.2625 38.1306 10.4871 38.2C10.8775 38.3207 11.2228 38.2839 11.5231 38.0896C11.8233 37.8954 12.0437 37.5709 12.1842 37.1164C12.2884 36.7795 12.3213 36.4645 12.283 36.1714C12.2464 35.873 12.1438 35.5982 11.9754 35.3469C11.8017 35.094 11.5657 34.8717 11.2676 34.6799C10.9712 34.4828 10.6144 34.3198 10.1972 34.1908L10.3931 33.5571C10.7835 33.6778 11.1313 33.8322 11.4364 34.0202C11.7432 34.2029 12.0028 34.415 12.2152 34.6565C12.4277 34.8979 12.5893 35.1617 12.7 35.4479C12.8071 35.727 12.8649 36.0232 12.8736 36.3364C12.8822 36.6496 12.8345 36.9746 12.7303 37.3115Z" fill="#A01D22"/>
<path d="M11.3636 45.7244L5.59923 42.7636L5.6632 42.1625L11.4338 45.0648L11.3636 45.7244ZM11.8718 40.9486L5.61966 42.5716L5.68808 41.9287L11.9464 40.2473L11.8718 40.9486ZM9.05663 44.3136L9.39068 41.1744L9.99182 41.2383L9.65777 44.3776L9.05663 44.3136Z" fill="#A01D22"/>
<path d="M11.7638 51.1879L11.2444 51.2224L5.75639 48.027L6.08321 47.7529L6.3294 51.4643L5.72619 51.5043L5.45444 47.4075L5.97387 47.373L11.4619 50.5684L11.135 50.8425L10.8777 46.9636L11.4809 46.9236L11.7638 51.1879Z" fill="#A01D22"/>
<path d="M12.2863 53.837L6.36087 55.035L6.22442 54.3602L12.1498 53.1621L12.2863 53.837Z" fill="#A01D22"/>
<path d="M14.1349 59.3906L8.41314 61.3418L8.19092 60.6901L13.9127 58.7389L14.1349 59.3906ZM11.5655 59.8942L10.9933 60.0893L9.94183 57.0059L10.514 56.8108L11.5655 59.8942ZM8.8715 60.8129L8.29932 61.008L7.17195 57.7021L7.74413 57.507L8.8715 60.8129Z" fill="#A01D22"/>
<path d="M16.7189 64.2674L11.396 67.1332L11.0696 66.527L16.3925 63.6612L16.7189 64.2674ZM16.5517 63.9569L16.0194 64.2434L14.3875 61.2124L14.9198 60.9258L16.5517 63.9569Z" fill="#A01D22"/>
<path d="M21.0665 69.7986L14.8802 71.7281L14.5044 71.2546L20.6542 69.2791L21.0665 69.7986ZM18.0811 66.0366L14.7601 71.5768L14.3582 71.0704L17.6427 65.4841L18.0811 66.0366ZM18.4324 70.4098L16.4699 67.9369L16.9435 67.5611L18.9059 70.034L18.4324 70.4098Z" fill="#A01D22"/>
<path d="M23.1691 75.3973L22.6231 76.068L21.9524 75.522L22.4984 74.8513L23.1691 75.3973Z" fill="#A01D22"/>
<path d="M29.7706 76.2175L26.8125 81.4896L26.212 81.1527L29.1702 75.8806L29.7706 76.2175Z" fill="#A01D22"/>
<path d="M37.4406 78.8855L37.1682 85.1839L36.5011 84.9548L36.7982 79.1531L36.9173 79.194L33.6186 83.9647L32.8245 83.6919L33.1454 77.8984L33.2645 77.9393L29.9419 82.7018L29.3146 82.4864L32.9698 77.3499L33.7639 77.6226L33.4896 83.2545L33.3943 83.2218L36.6465 78.6127L37.4406 78.8855Z" fill="#A01D22"/>
<path d="M43.2482 79.9407L42.4952 85.9389L41.8121 85.8532L42.5651 79.8549L43.2482 79.9407ZM42.8983 79.8968L42.823 80.4966L39.4073 80.0678L39.4826 79.468L42.8983 79.8968Z" fill="#A01D22"/>
<path d="M50.3205 79.6572L48.2607 85.8015L47.6568 85.8287L49.6578 79.6871L50.3205 79.6572ZM45.5227 79.8733L48.0678 85.8101L47.4219 85.8392L44.8181 79.9051L45.5227 79.8733ZM49.2729 82.1502L46.1191 82.2923L46.0919 81.6883L49.2457 81.5463L49.2729 82.1502Z" fill="#A01D22"/>
<path d="M52.1146 79.1836L56.0426 81.6815C56.2674 81.8298 56.4557 81.9694 56.6073 82.1004C56.759 82.2314 56.8795 82.364 56.9687 82.4982C57.0578 82.6325 57.1204 82.7759 57.1564 82.9284C57.2156 83.179 57.2023 83.4151 57.1165 83.6366C57.032 83.8636 56.891 84.0579 56.6933 84.2196C56.4915 84.388 56.2435 84.5069 55.9493 84.5763C55.666 84.6431 55.3971 84.6491 55.1426 84.5941C54.8894 84.5446 54.6722 84.4406 54.491 84.2821C54.3098 84.1235 54.1877 83.9108 54.1247 83.6438C54.0463 83.3115 54.1049 82.9871 54.3005 82.6706C54.4974 82.3596 54.8422 82.0539 55.335 81.7536L55.7766 82.0894C55.3815 82.2919 55.099 82.5081 54.9289 82.738C54.7547 82.9747 54.6972 83.2183 54.7563 83.4689C54.8129 83.7086 54.9471 83.8753 55.159 83.9691C55.3655 84.0642 55.5913 84.0828 55.8365 84.0249C56.0762 83.9684 56.2623 83.8554 56.3949 83.6861C56.522 83.5181 56.5567 83.3115 56.4988 83.0663C56.4731 82.9574 56.4256 82.8536 56.3563 82.7549C56.2816 82.6575 56.1703 82.5515 56.0225 82.4368C55.8746 82.3222 55.6688 82.181 55.4049 82.0132L51.2565 79.3861L52.1146 79.1836ZM54.6694 78.4944C55.0944 78.3942 55.4849 78.3796 55.841 78.4509C56.1972 78.5221 56.4966 78.67 56.7394 78.8945C56.9767 79.1203 57.1372 79.4103 57.2207 79.7644C57.3236 80.2003 57.261 80.6176 57.0331 81.0165C56.8051 81.4153 56.4425 81.7309 55.9452 81.9633L55.4893 81.6396C55.7789 81.5022 56.0125 81.3464 56.1899 81.1723C56.3687 81.0036 56.4919 80.8192 56.5597 80.6192C56.6221 80.4204 56.6263 80.2066 56.5723 79.9778C56.4785 79.5801 56.2717 79.3011 55.9521 79.1407C55.6324 78.9803 55.241 78.9548 54.778 79.0641C54.4348 79.1451 54.1465 79.2763 53.9133 79.4579C53.6747 79.6408 53.4897 79.8684 53.3585 80.141C53.2285 80.4189 53.1565 80.735 53.1423 81.0892C53.1226 81.4446 53.1629 81.8348 53.2632 82.2598L52.6176 82.4121C52.5238 82.0144 52.4806 81.6364 52.4881 81.2781C52.4901 80.921 52.5413 80.5897 52.6417 80.2842C52.7422 79.9787 52.8877 79.7057 53.0782 79.4652C53.2646 79.2314 53.4906 79.0314 53.7562 78.8652C54.0218 78.699 54.3262 78.5754 54.6694 78.4944Z" fill="#A01D22"/>
<path d="M62.5534 75.3804L62.9689 81.8473L62.4201 82.1008L61.9512 75.6585L62.5534 75.3804ZM58.1932 77.394L62.7936 81.9283L62.2066 82.1994L57.5529 77.6897L58.1932 77.394ZM62.5259 78.0844L59.6597 79.408L59.4063 78.8592L62.2724 77.5355L62.5259 78.0844Z" fill="#A01D22"/>
<path d="M67.0194 72.2327L67.3163 72.6603L67.4005 79.0102L66.9973 78.8711L70.0529 76.7501L70.3976 77.2467L67.0247 79.5879L66.7279 79.1603L66.6436 72.8104L67.0468 72.9495L63.8533 75.1662L63.5086 74.6696L67.0194 72.2327Z" fill="#A01D22"/>
<path d="M69.044 70.4165L73.1046 74.895L72.5946 75.3575L68.5339 70.879L69.044 70.4165Z" fill="#A01D22"/>
<path d="M72.877 65.988L77.4767 69.9108L77.0299 70.4347L72.4302 66.5119L72.877 65.988ZM74.6222 67.9399L75.0822 68.3322L72.9682 70.8109L72.5082 70.4186L74.6222 67.9399ZM76.7879 69.7869L77.2479 70.1792L74.9814 72.8368L74.5214 72.4445L76.7879 69.7869Z" fill="#A01D22"/>
<path d="M75.7579 61.2749L80.9367 64.3935L80.5815 64.9833L75.4027 61.8647L75.7579 61.2749ZM75.5759 61.577L76.0938 61.8889L74.3179 64.8379L73.8001 64.526L75.5759 61.577Z" fill="#A01D22"/>
<path d="M78.3237 54.7073L83.1261 59.0582L82.9088 59.6223L78.0853 55.3263L78.3237 54.7073ZM76.5975 59.189L83.0567 59.2384L82.8243 59.8417L76.3441 59.8472L76.5975 59.189ZM80.1873 56.6667L79.0526 59.6127L78.4885 59.3955L79.6231 56.4494L80.1873 56.6667Z" fill="#A01D22"/>
<path d="M45.3976 75.1746C61.5116 75.1745 74.5744 62.1118 74.5744 45.9978C74.5743 29.8839 61.5115 16.8211 45.3976 16.821C29.2836 16.821 16.2209 29.8838 16.2208 45.9978H15.8009C15.801 29.652 29.0518 16.4011 45.3976 16.4011C61.7434 16.4012 74.9942 29.6521 74.9943 45.9978C74.9943 62.3436 61.7434 75.5944 45.3976 75.5945C29.0517 75.5945 15.8009 62.3437 15.8009 45.9978H16.2208C16.2208 62.1118 29.2836 75.1746 45.3976 75.1746Z" fill="#A01D22"/>
<path d="M45.3975 90.7081C70.0903 90.7081 90.1076 70.6909 90.1076 45.9981C90.1075 21.3054 70.0902 1.28813 45.3975 1.28809C20.7048 1.28809 0.687541 21.3054 0.687501 45.9981H0.267578C0.267618 21.0735 20.4729 0.868163 45.3975 0.868164C70.3221 0.868204 90.5274 21.0736 90.5275 45.9981C90.5275 70.9227 70.3221 91.128 45.3975 91.1281C20.4729 91.1281 0.267577 70.9227 0.267578 45.9981H0.687501C0.6875 70.6909 20.7048 90.7081 45.3975 90.7081Z" fill="#A01D22"/>
</svg>
