<svg width="204" height="204" viewBox="0 0 204 204" fill="none" xmlns="http://www.w3.org/2000/svg">
<path d="M0.345703 43.3101L8.07311 41.2396C48.0831 30.5189 89.2083 54.2626 99.929 94.2726L102 102L94.2721 104.071C54.2622 114.791 13.1369 91.0475 2.41626 51.0375L0.345703 43.3101Z" fill="#24666A"/>
<path d="M160.689 0.34613L152.962 2.41668C112.952 13.1373 89.2084 54.2626 99.929 94.2725L102 102L109.727 99.9294C149.737 89.2088 173.481 48.0835 162.76 8.07354L160.689 0.34613Z" fill="#24666A"/>
<path d="M102 102L94.2726 104.07C54.2626 114.791 30.519 155.916 41.2396 195.926L43.3101 203.654L51.0375 201.583C91.0475 190.863 114.791 149.737 104.071 109.727L102 102Z" fill="#24666A"/>
<path d="M102 102L109.727 99.9294C149.737 89.2088 190.863 112.952 201.583 152.962L203.654 160.69L195.926 162.76C155.916 173.481 114.791 149.737 104.071 109.727L102 102Z" fill="#24666A"/>
</svg>
