<svg width="88" height="84" viewBox="0 0 88 84" fill="none" xmlns="http://www.w3.org/2000/svg">
<g opacity="0.72">
<path d="M87.375 64.4375C86.875 65.9375 86.0625 67.6042 84.9375 69.4375C83.8542 71.2708 82.3542 73 80.4375 74.625C78.5625 76.25 76.2083 77.6042 73.375 78.6875C70.5833 79.7708 67.2292 80.3125 63.3125 80.3125C60.4375 80.3125 57.7083 79.9375 55.125 79.1875C52.5833 78.4375 50.1875 77.3958 47.9375 76.0625C44.3125 78.1875 40.4792 79.9167 36.4375 81.25C32.4375 82.5833 28.25 83.25 23.875 83.25C19.7083 83.25 16.125 82.6875 13.125 81.5625C10.125 80.3958 7.64583 78.875 5.6875 77C3.77083 75.125 2.35417 73 1.4375 70.625C0.520833 68.25 0.0625 65.8333 0.0625 63.375C0.0625 59.625 0.791667 56.3333 2.25 53.5C3.70833 50.6667 5.625 48.1875 8 46.0625C10.375 43.8958 13.0833 42 16.125 40.375C19.2083 38.7083 22.3542 37.1667 25.5625 35.75C25.2292 33.7917 24.9792 31.8542 24.8125 29.9375C24.6875 28.0208 24.625 26.125 24.625 24.25C24.625 20.4583 25.125 17.0625 26.125 14.0625C27.125 11.0625 28.5 8.52083 30.25 6.4375C32.0417 4.35417 34.1458 2.77083 36.5625 1.6875C39.0208 0.604167 41.6667 0.0625 44.5 0.0625C46.375 0.0625 48 0.395833 49.375 1.0625C50.7917 1.6875 51.9583 2.52083 52.875 3.5625C53.7917 4.60417 54.4792 5.77083 54.9375 7.0625C55.3958 8.3125 55.625 9.5625 55.625 10.8125C55.625 14.1458 54.9375 17.0833 53.5625 19.625C52.1875 22.1667 50.375 24.4375 48.125 26.4375C45.9167 28.3958 43.3958 30.1458 40.5625 31.6875C37.7292 33.2292 34.8542 34.6667 31.9375 36C32.6042 39.5833 33.5 43.1042 34.625 46.5625C35.75 50.0208 37.0833 53.2917 38.625 56.375C40.2083 59.4583 41.9792 62.3125 43.9375 64.9375C45.9375 67.5208 48.1667 69.7292 50.625 71.5625C53.2917 69.6458 55.7292 67.5417 57.9375 65.25C60.1458 62.9583 62.0417 60.6458 63.625 58.3125C65.2083 55.9375 66.4167 53.6458 67.25 51.4375C68.125 49.2292 68.5625 47.25 68.5625 45.5C68.5625 44.2083 68.4167 43.125 68.125 42.25C67.8333 41.375 67.4375 40.6667 66.9375 40.125C66.4375 39.5833 65.8542 39.1875 65.1875 38.9375C64.5208 38.6875 63.8125 38.5625 63.0625 38.5625C62.4375 38.5625 61.7917 38.6875 61.125 38.9375C60.4583 39.1875 59.8542 39.5625 59.3125 40.0625C58.8125 40.5208 58.3958 41.125 58.0625 41.875C57.7292 42.5833 57.5625 43.4375 57.5625 44.4375C57.5625 45.2292 57.7708 46.1042 58.1875 47.0625C58.6458 47.9792 59.4583 48.6875 60.625 49.1875L59.5625 51.25C58.7292 50.875 58.0417 50.4375 57.5 49.9375C56.9583 49.3958 56.5208 48.8125 56.1875 48.1875C55.8542 47.5625 55.6042 46.9375 55.4375 46.3125C55.3125 45.6458 55.25 45.0208 55.25 44.4375C55.25 43.0625 55.5208 41.875 56.0625 40.875C56.6458 39.8333 57.3542 38.9792 58.1875 38.3125C59.0625 37.6042 60 37.0833 61 36.75C62 36.4167 62.9375 36.25 63.8125 36.25C66.3125 36.25 68.3125 37.0208 69.8125 38.5625C71.3542 40.1042 72.125 42.3125 72.125 45.1875C72.125 47.0208 71.6458 49.1042 70.6875 51.4375C69.7708 53.7708 68.4583 56.1875 66.75 58.6875C65.0417 61.1875 62.9792 63.6875 60.5625 66.1875C58.1458 68.6875 55.4792 71 52.5625 73.125C54.6875 74.4583 56.9167 75.5 59.25 76.25C61.625 77 64.1667 77.375 66.875 77.375C69.5417 77.375 71.8958 76.9167 73.9375 76C76.0208 75.0833 77.8125 73.9375 79.3125 72.5625C80.8125 71.1875 82.0417 69.7083 83 68.125C83.9583 66.5 84.6458 65 85.0625 63.625L87.375 64.4375ZM27.0625 79.625C30.4375 79.625 33.6875 79.1875 36.8125 78.3125C39.9375 77.4375 42.9167 76.2083 45.75 74.625C43.125 72.7083 40.75 70.4375 38.625 67.8125C36.5 65.1458 34.6042 62.25 32.9375 59.125C31.3125 56 29.9167 52.7083 28.75 49.25C27.625 45.75 26.7292 42.2292 26.0625 38.6875C23.2292 40.0625 20.6458 41.5208 18.3125 43.0625C16.0208 44.5625 14.0625 46.25 12.4375 48.125C10.8125 49.9583 9.5625 52.0208 8.6875 54.3125C7.8125 56.6042 7.375 59.2083 7.375 62.125C7.375 65.2083 7.95833 67.8542 9.125 70.0625C10.3333 72.2292 11.875 74.0417 13.75 75.5C15.625 76.9167 17.7292 77.9583 20.0625 78.625C22.3958 79.2917 24.7292 79.625 27.0625 79.625ZM30.4375 20.125C30.4375 22.25 30.5 24.4167 30.625 26.625C30.7917 28.7917 31.0625 30.9792 31.4375 33.1875C34.2292 31.9375 36.9375 30.625 39.5625 29.25C42.1875 27.8333 44.5208 26.2708 46.5625 24.5625C48.6042 22.8125 50.2292 20.875 51.4375 18.75C52.6875 16.5833 53.3125 14.1458 53.3125 11.4375C53.3125 10.3125 53.125 9.20833 52.75 8.125C52.4167 7.04167 51.875 6.0625 51.125 5.1875C50.4167 4.3125 49.5 3.625 48.375 3.125C47.2917 2.58333 46 2.3125 44.5 2.3125C42.5 2.3125 40.625 2.77083 38.875 3.6875C37.1667 4.60417 35.6875 5.875 34.4375 7.5C33.1875 9.08333 32.2083 10.9583 31.5 13.125C30.7917 15.2917 30.4375 17.625 30.4375 20.125Z" fill="#2D4044"/>
<path d="M87.375 64.4375C86.875 65.9375 86.0625 67.6042 84.9375 69.4375C83.8542 71.2708 82.3542 73 80.4375 74.625C78.5625 76.25 76.2083 77.6042 73.375 78.6875C70.5833 79.7708 67.2292 80.3125 63.3125 80.3125C60.4375 80.3125 57.7083 79.9375 55.125 79.1875C52.5833 78.4375 50.1875 77.3958 47.9375 76.0625C44.3125 78.1875 40.4792 79.9167 36.4375 81.25C32.4375 82.5833 28.25 83.25 23.875 83.25C19.7083 83.25 16.125 82.6875 13.125 81.5625C10.125 80.3958 7.64583 78.875 5.6875 77C3.77083 75.125 2.35417 73 1.4375 70.625C0.520833 68.25 0.0625 65.8333 0.0625 63.375C0.0625 59.625 0.791667 56.3333 2.25 53.5C3.70833 50.6667 5.625 48.1875 8 46.0625C10.375 43.8958 13.0833 42 16.125 40.375C19.2083 38.7083 22.3542 37.1667 25.5625 35.75C25.2292 33.7917 24.9792 31.8542 24.8125 29.9375C24.6875 28.0208 24.625 26.125 24.625 24.25C24.625 20.4583 25.125 17.0625 26.125 14.0625C27.125 11.0625 28.5 8.52083 30.25 6.4375C32.0417 4.35417 34.1458 2.77083 36.5625 1.6875C39.0208 0.604167 41.6667 0.0625 44.5 0.0625C46.375 0.0625 48 0.395833 49.375 1.0625C50.7917 1.6875 51.9583 2.52083 52.875 3.5625C53.7917 4.60417 54.4792 5.77083 54.9375 7.0625C55.3958 8.3125 55.625 9.5625 55.625 10.8125C55.625 14.1458 54.9375 17.0833 53.5625 19.625C52.1875 22.1667 50.375 24.4375 48.125 26.4375C45.9167 28.3958 43.3958 30.1458 40.5625 31.6875C37.7292 33.2292 34.8542 34.6667 31.9375 36C32.6042 39.5833 33.5 43.1042 34.625 46.5625C35.75 50.0208 37.0833 53.2917 38.625 56.375C40.2083 59.4583 41.9792 62.3125 43.9375 64.9375C45.9375 67.5208 48.1667 69.7292 50.625 71.5625C53.2917 69.6458 55.7292 67.5417 57.9375 65.25C60.1458 62.9583 62.0417 60.6458 63.625 58.3125C65.2083 55.9375 66.4167 53.6458 67.25 51.4375C68.125 49.2292 68.5625 47.25 68.5625 45.5C68.5625 44.2083 68.4167 43.125 68.125 42.25C67.8333 41.375 67.4375 40.6667 66.9375 40.125C66.4375 39.5833 65.8542 39.1875 65.1875 38.9375C64.5208 38.6875 63.8125 38.5625 63.0625 38.5625C62.4375 38.5625 61.7917 38.6875 61.125 38.9375C60.4583 39.1875 59.8542 39.5625 59.3125 40.0625C58.8125 40.5208 58.3958 41.125 58.0625 41.875C57.7292 42.5833 57.5625 43.4375 57.5625 44.4375C57.5625 45.2292 57.7708 46.1042 58.1875 47.0625C58.6458 47.9792 59.4583 48.6875 60.625 49.1875L59.5625 51.25C58.7292 50.875 58.0417 50.4375 57.5 49.9375C56.9583 49.3958 56.5208 48.8125 56.1875 48.1875C55.8542 47.5625 55.6042 46.9375 55.4375 46.3125C55.3125 45.6458 55.25 45.0208 55.25 44.4375C55.25 43.0625 55.5208 41.875 56.0625 40.875C56.6458 39.8333 57.3542 38.9792 58.1875 38.3125C59.0625 37.6042 60 37.0833 61 36.75C62 36.4167 62.9375 36.25 63.8125 36.25C66.3125 36.25 68.3125 37.0208 69.8125 38.5625C71.3542 40.1042 72.125 42.3125 72.125 45.1875C72.125 47.0208 71.6458 49.1042 70.6875 51.4375C69.7708 53.7708 68.4583 56.1875 66.75 58.6875C65.0417 61.1875 62.9792 63.6875 60.5625 66.1875C58.1458 68.6875 55.4792 71 52.5625 73.125C54.6875 74.4583 56.9167 75.5 59.25 76.25C61.625 77 64.1667 77.375 66.875 77.375C69.5417 77.375 71.8958 76.9167 73.9375 76C76.0208 75.0833 77.8125 73.9375 79.3125 72.5625C80.8125 71.1875 82.0417 69.7083 83 68.125C83.9583 66.5 84.6458 65 85.0625 63.625L87.375 64.4375ZM27.0625 79.625C30.4375 79.625 33.6875 79.1875 36.8125 78.3125C39.9375 77.4375 42.9167 76.2083 45.75 74.625C43.125 72.7083 40.75 70.4375 38.625 67.8125C36.5 65.1458 34.6042 62.25 32.9375 59.125C31.3125 56 29.9167 52.7083 28.75 49.25C27.625 45.75 26.7292 42.2292 26.0625 38.6875C23.2292 40.0625 20.6458 41.5208 18.3125 43.0625C16.0208 44.5625 14.0625 46.25 12.4375 48.125C10.8125 49.9583 9.5625 52.0208 8.6875 54.3125C7.8125 56.6042 7.375 59.2083 7.375 62.125C7.375 65.2083 7.95833 67.8542 9.125 70.0625C10.3333 72.2292 11.875 74.0417 13.75 75.5C15.625 76.9167 17.7292 77.9583 20.0625 78.625C22.3958 79.2917 24.7292 79.625 27.0625 79.625ZM30.4375 20.125C30.4375 22.25 30.5 24.4167 30.625 26.625C30.7917 28.7917 31.0625 30.9792 31.4375 33.1875C34.2292 31.9375 36.9375 30.625 39.5625 29.25C42.1875 27.8333 44.5208 26.2708 46.5625 24.5625C48.6042 22.8125 50.2292 20.875 51.4375 18.75C52.6875 16.5833 53.3125 14.1458 53.3125 11.4375C53.3125 10.3125 53.125 9.20833 52.75 8.125C52.4167 7.04167 51.875 6.0625 51.125 5.1875C50.4167 4.3125 49.5 3.625 48.375 3.125C47.2917 2.58333 46 2.3125 44.5 2.3125C42.5 2.3125 40.625 2.77083 38.875 3.6875C37.1667 4.60417 35.6875 5.875 34.4375 7.5C33.1875 9.08333 32.2083 10.9583 31.5 13.125C30.7917 15.2917 30.4375 17.625 30.4375 20.125Z" fill="#FF0000"/>
<path d="M87.375 64.4375C86.875 65.9375 86.0625 67.6042 84.9375 69.4375C83.8542 71.2708 82.3542 73 80.4375 74.625C78.5625 76.25 76.2083 77.6042 73.375 78.6875C70.5833 79.7708 67.2292 80.3125 63.3125 80.3125C60.4375 80.3125 57.7083 79.9375 55.125 79.1875C52.5833 78.4375 50.1875 77.3958 47.9375 76.0625C44.3125 78.1875 40.4792 79.9167 36.4375 81.25C32.4375 82.5833 28.25 83.25 23.875 83.25C19.7083 83.25 16.125 82.6875 13.125 81.5625C10.125 80.3958 7.64583 78.875 5.6875 77C3.77083 75.125 2.35417 73 1.4375 70.625C0.520833 68.25 0.0625 65.8333 0.0625 63.375C0.0625 59.625 0.791667 56.3333 2.25 53.5C3.70833 50.6667 5.625 48.1875 8 46.0625C10.375 43.8958 13.0833 42 16.125 40.375C19.2083 38.7083 22.3542 37.1667 25.5625 35.75C25.2292 33.7917 24.9792 31.8542 24.8125 29.9375C24.6875 28.0208 24.625 26.125 24.625 24.25C24.625 20.4583 25.125 17.0625 26.125 14.0625C27.125 11.0625 28.5 8.52083 30.25 6.4375C32.0417 4.35417 34.1458 2.77083 36.5625 1.6875C39.0208 0.604167 41.6667 0.0625 44.5 0.0625C46.375 0.0625 48 0.395833 49.375 1.0625C50.7917 1.6875 51.9583 2.52083 52.875 3.5625C53.7917 4.60417 54.4792 5.77083 54.9375 7.0625C55.3958 8.3125 55.625 9.5625 55.625 10.8125C55.625 14.1458 54.9375 17.0833 53.5625 19.625C52.1875 22.1667 50.375 24.4375 48.125 26.4375C45.9167 28.3958 43.3958 30.1458 40.5625 31.6875C37.7292 33.2292 34.8542 34.6667 31.9375 36C32.6042 39.5833 33.5 43.1042 34.625 46.5625C35.75 50.0208 37.0833 53.2917 38.625 56.375C40.2083 59.4583 41.9792 62.3125 43.9375 64.9375C45.9375 67.5208 48.1667 69.7292 50.625 71.5625C53.2917 69.6458 55.7292 67.5417 57.9375 65.25C60.1458 62.9583 62.0417 60.6458 63.625 58.3125C65.2083 55.9375 66.4167 53.6458 67.25 51.4375C68.125 49.2292 68.5625 47.25 68.5625 45.5C68.5625 44.2083 68.4167 43.125 68.125 42.25C67.8333 41.375 67.4375 40.6667 66.9375 40.125C66.4375 39.5833 65.8542 39.1875 65.1875 38.9375C64.5208 38.6875 63.8125 38.5625 63.0625 38.5625C62.4375 38.5625 61.7917 38.6875 61.125 38.9375C60.4583 39.1875 59.8542 39.5625 59.3125 40.0625C58.8125 40.5208 58.3958 41.125 58.0625 41.875C57.7292 42.5833 57.5625 43.4375 57.5625 44.4375C57.5625 45.2292 57.7708 46.1042 58.1875 47.0625C58.6458 47.9792 59.4583 48.6875 60.625 49.1875L59.5625 51.25C58.7292 50.875 58.0417 50.4375 57.5 49.9375C56.9583 49.3958 56.5208 48.8125 56.1875 48.1875C55.8542 47.5625 55.6042 46.9375 55.4375 46.3125C55.3125 45.6458 55.25 45.0208 55.25 44.4375C55.25 43.0625 55.5208 41.875 56.0625 40.875C56.6458 39.8333 57.3542 38.9792 58.1875 38.3125C59.0625 37.6042 60 37.0833 61 36.75C62 36.4167 62.9375 36.25 63.8125 36.25C66.3125 36.25 68.3125 37.0208 69.8125 38.5625C71.3542 40.1042 72.125 42.3125 72.125 45.1875C72.125 47.0208 71.6458 49.1042 70.6875 51.4375C69.7708 53.7708 68.4583 56.1875 66.75 58.6875C65.0417 61.1875 62.9792 63.6875 60.5625 66.1875C58.1458 68.6875 55.4792 71 52.5625 73.125C54.6875 74.4583 56.9167 75.5 59.25 76.25C61.625 77 64.1667 77.375 66.875 77.375C69.5417 77.375 71.8958 76.9167 73.9375 76C76.0208 75.0833 77.8125 73.9375 79.3125 72.5625C80.8125 71.1875 82.0417 69.7083 83 68.125C83.9583 66.5 84.6458 65 85.0625 63.625L87.375 64.4375ZM27.0625 79.625C30.4375 79.625 33.6875 79.1875 36.8125 78.3125C39.9375 77.4375 42.9167 76.2083 45.75 74.625C43.125 72.7083 40.75 70.4375 38.625 67.8125C36.5 65.1458 34.6042 62.25 32.9375 59.125C31.3125 56 29.9167 52.7083 28.75 49.25C27.625 45.75 26.7292 42.2292 26.0625 38.6875C23.2292 40.0625 20.6458 41.5208 18.3125 43.0625C16.0208 44.5625 14.0625 46.25 12.4375 48.125C10.8125 49.9583 9.5625 52.0208 8.6875 54.3125C7.8125 56.6042 7.375 59.2083 7.375 62.125C7.375 65.2083 7.95833 67.8542 9.125 70.0625C10.3333 72.2292 11.875 74.0417 13.75 75.5C15.625 76.9167 17.7292 77.9583 20.0625 78.625C22.3958 79.2917 24.7292 79.625 27.0625 79.625ZM30.4375 20.125C30.4375 22.25 30.5 24.4167 30.625 26.625C30.7917 28.7917 31.0625 30.9792 31.4375 33.1875C34.2292 31.9375 36.9375 30.625 39.5625 29.25C42.1875 27.8333 44.5208 26.2708 46.5625 24.5625C48.6042 22.8125 50.2292 20.875 51.4375 18.75C52.6875 16.5833 53.3125 14.1458 53.3125 11.4375C53.3125 10.3125 53.125 9.20833 52.75 8.125C52.4167 7.04167 51.875 6.0625 51.125 5.1875C50.4167 4.3125 49.5 3.625 48.375 3.125C47.2917 2.58333 46 2.3125 44.5 2.3125C42.5 2.3125 40.625 2.77083 38.875 3.6875C37.1667 4.60417 35.6875 5.875 34.4375 7.5C33.1875 9.08333 32.2083 10.9583 31.5 13.125C30.7917 15.2917 30.4375 17.625 30.4375 20.125Z" fill="#C79144"/>
</g>
</svg>
