<svg width="88" height="84" viewBox="0 0 88 84" fill="none" xmlns="http://www.w3.org/2000/svg">
<g opacity="0.72">
<path d="M87.5432 65.1191C87.0432 66.6191 86.2307 68.2858 85.1057 70.1191C84.0224 71.9525 82.5224 73.6816 80.6057 75.3066C78.7307 76.9316 76.3765 78.2858 73.5432 79.3691C70.7515 80.4525 67.3974 80.9941 63.4807 80.9941C60.6057 80.9941 57.8765 80.6191 55.2932 79.8691C52.7515 79.1191 50.3557 78.0775 48.1057 76.7441C44.4807 78.8691 40.6474 80.5983 36.6057 81.9316C32.6057 83.265 28.4182 83.9316 24.0432 83.9316C19.8765 83.9316 16.2932 83.3691 13.2932 82.2441C10.2932 81.0775 7.81405 79.5566 5.85571 77.6816C3.93905 75.8066 2.52238 73.6816 1.60571 71.3066C0.689046 68.9316 0.230713 66.515 0.230713 64.0566C0.230713 60.3066 0.95988 57.015 2.41821 54.1816C3.87655 51.3483 5.79321 48.8691 8.16821 46.7441C10.5432 44.5775 13.2515 42.6816 16.2932 41.0566C19.3765 39.39 22.5224 37.8483 25.7307 36.4316C25.3974 34.4733 25.1474 32.5358 24.9807 30.6191C24.8557 28.7025 24.7932 26.8066 24.7932 24.9316C24.7932 21.14 25.2932 17.7441 26.2932 14.7441C27.2932 11.7441 28.6682 9.20247 30.4182 7.11914C32.2099 5.03581 34.314 3.45247 36.7307 2.36914C39.189 1.28581 41.8349 0.744141 44.6682 0.744141C46.5432 0.744141 48.1682 1.07747 49.5432 1.74414C50.9599 2.36914 52.1265 3.20247 53.0432 4.24414C53.9599 5.28581 54.6474 6.45247 55.1057 7.74414C55.564 8.99414 55.7932 10.2441 55.7932 11.4941C55.7932 14.8275 55.1057 17.765 53.7307 20.3066C52.3557 22.8483 50.5432 25.1191 48.2932 27.1191C46.0849 29.0775 43.564 30.8275 40.7307 32.3691C37.8974 33.9108 35.0224 35.3483 32.1057 36.6816C32.7724 40.265 33.6682 43.7858 34.7932 47.2441C35.9182 50.7025 37.2515 53.9733 38.7932 57.0566C40.3765 60.14 42.1474 62.9941 44.1057 65.6191C46.1057 68.2025 48.3349 70.4108 50.7932 72.2441C53.4599 70.3275 55.8974 68.2233 58.1057 65.9316C60.314 63.64 62.2099 61.3275 63.7932 58.9941C65.3765 56.6191 66.5849 54.3275 67.4182 52.1191C68.2932 49.9108 68.7307 47.9316 68.7307 46.1816C68.7307 44.89 68.5849 43.8066 68.2932 42.9316C68.0015 42.0566 67.6057 41.3483 67.1057 40.8066C66.6057 40.265 66.0224 39.8691 65.3557 39.6191C64.689 39.3691 63.9807 39.2441 63.2307 39.2441C62.6057 39.2441 61.9599 39.3691 61.2932 39.6191C60.6265 39.8691 60.0224 40.2441 59.4807 40.7441C58.9807 41.2025 58.564 41.8066 58.2307 42.5566C57.8974 43.265 57.7307 44.1191 57.7307 45.1191C57.7307 45.9108 57.939 46.7858 58.3557 47.7441C58.814 48.6608 59.6265 49.3691 60.7932 49.8691L59.7307 51.9316C58.8974 51.5566 58.2099 51.1191 57.6682 50.6191C57.1265 50.0775 56.689 49.4941 56.3557 48.8691C56.0224 48.2441 55.7724 47.6191 55.6057 46.9941C55.4807 46.3275 55.4182 45.7025 55.4182 45.1191C55.4182 43.7441 55.689 42.5566 56.2307 41.5566C56.814 40.515 57.5224 39.6608 58.3557 38.9941C59.2307 38.2858 60.1682 37.765 61.1682 37.4316C62.1682 37.0983 63.1057 36.9316 63.9807 36.9316C66.4807 36.9316 68.4807 37.7025 69.9807 39.2441C71.5224 40.7858 72.2932 42.9941 72.2932 45.8691C72.2932 47.7025 71.814 49.7858 70.8557 52.1191C69.939 54.4525 68.6265 56.8691 66.9182 59.3691C65.2099 61.8691 63.1474 64.3691 60.7307 66.8691C58.314 69.3691 55.6474 71.6816 52.7307 73.8066C54.8557 75.14 57.0849 76.1816 59.4182 76.9316C61.7932 77.6816 64.3349 78.0566 67.0432 78.0566C69.7099 78.0566 72.064 77.5983 74.1057 76.6816C76.189 75.765 77.9807 74.6191 79.4807 73.2441C80.9807 71.8691 82.2099 70.39 83.1682 68.8066C84.1265 67.1816 84.814 65.6816 85.2307 64.3066L87.5432 65.1191ZM27.2307 80.3066C30.6057 80.3066 33.8557 79.8691 36.9807 78.9941C40.1057 78.1191 43.0849 76.89 45.9182 75.3066C43.2932 73.39 40.9182 71.1191 38.7932 68.4941C36.6682 65.8275 34.7724 62.9316 33.1057 59.8066C31.4807 56.6816 30.0849 53.39 28.9182 49.9316C27.7932 46.4316 26.8974 42.9108 26.2307 39.3691C23.3974 40.7441 20.814 42.2025 18.4807 43.7441C16.189 45.2441 14.2307 46.9316 12.6057 48.8066C10.9807 50.64 9.73071 52.7025 8.85571 54.9941C7.98071 57.2858 7.54321 59.89 7.54321 62.8066C7.54321 65.89 8.12655 68.5358 9.29321 70.7441C10.5015 72.9108 12.0432 74.7233 13.9182 76.1816C15.7932 77.5983 17.8974 78.64 20.2307 79.3066C22.564 79.9733 24.8974 80.3066 27.2307 80.3066ZM30.6057 20.8066C30.6057 22.9316 30.6682 25.0983 30.7932 27.3066C30.9599 29.4733 31.2307 31.6608 31.6057 33.8691C34.3974 32.6191 37.1057 31.3066 39.7307 29.9316C42.3557 28.515 44.689 26.9525 46.7307 25.2441C48.7724 23.4941 50.3974 21.5566 51.6057 19.4316C52.8557 17.265 53.4807 14.8275 53.4807 12.1191C53.4807 10.9941 53.2932 9.88997 52.9182 8.80664C52.5849 7.72331 52.0432 6.74414 51.2932 5.86914C50.5849 4.99414 49.6682 4.30664 48.5432 3.80664C47.4599 3.26497 46.1682 2.99414 44.6682 2.99414C42.6682 2.99414 40.7932 3.45247 39.0432 4.36914C37.3349 5.28581 35.8557 6.55664 34.6057 8.18164C33.3557 9.76497 32.3765 11.64 31.6682 13.8066C30.9599 15.9733 30.6057 18.3066 30.6057 20.8066Z" fill="#2D4044"/>
<path d="M87.5432 65.1191C87.0432 66.6191 86.2307 68.2858 85.1057 70.1191C84.0224 71.9525 82.5224 73.6816 80.6057 75.3066C78.7307 76.9316 76.3765 78.2858 73.5432 79.3691C70.7515 80.4525 67.3974 80.9941 63.4807 80.9941C60.6057 80.9941 57.8765 80.6191 55.2932 79.8691C52.7515 79.1191 50.3557 78.0775 48.1057 76.7441C44.4807 78.8691 40.6474 80.5983 36.6057 81.9316C32.6057 83.265 28.4182 83.9316 24.0432 83.9316C19.8765 83.9316 16.2932 83.3691 13.2932 82.2441C10.2932 81.0775 7.81405 79.5566 5.85571 77.6816C3.93905 75.8066 2.52238 73.6816 1.60571 71.3066C0.689046 68.9316 0.230713 66.515 0.230713 64.0566C0.230713 60.3066 0.95988 57.015 2.41821 54.1816C3.87655 51.3483 5.79321 48.8691 8.16821 46.7441C10.5432 44.5775 13.2515 42.6816 16.2932 41.0566C19.3765 39.39 22.5224 37.8483 25.7307 36.4316C25.3974 34.4733 25.1474 32.5358 24.9807 30.6191C24.8557 28.7025 24.7932 26.8066 24.7932 24.9316C24.7932 21.14 25.2932 17.7441 26.2932 14.7441C27.2932 11.7441 28.6682 9.20247 30.4182 7.11914C32.2099 5.03581 34.314 3.45247 36.7307 2.36914C39.189 1.28581 41.8349 0.744141 44.6682 0.744141C46.5432 0.744141 48.1682 1.07747 49.5432 1.74414C50.9599 2.36914 52.1265 3.20247 53.0432 4.24414C53.9599 5.28581 54.6474 6.45247 55.1057 7.74414C55.564 8.99414 55.7932 10.2441 55.7932 11.4941C55.7932 14.8275 55.1057 17.765 53.7307 20.3066C52.3557 22.8483 50.5432 25.1191 48.2932 27.1191C46.0849 29.0775 43.564 30.8275 40.7307 32.3691C37.8974 33.9108 35.0224 35.3483 32.1057 36.6816C32.7724 40.265 33.6682 43.7858 34.7932 47.2441C35.9182 50.7025 37.2515 53.9733 38.7932 57.0566C40.3765 60.14 42.1474 62.9941 44.1057 65.6191C46.1057 68.2025 48.3349 70.4108 50.7932 72.2441C53.4599 70.3275 55.8974 68.2233 58.1057 65.9316C60.314 63.64 62.2099 61.3275 63.7932 58.9941C65.3765 56.6191 66.5849 54.3275 67.4182 52.1191C68.2932 49.9108 68.7307 47.9316 68.7307 46.1816C68.7307 44.89 68.5849 43.8066 68.2932 42.9316C68.0015 42.0566 67.6057 41.3483 67.1057 40.8066C66.6057 40.265 66.0224 39.8691 65.3557 39.6191C64.689 39.3691 63.9807 39.2441 63.2307 39.2441C62.6057 39.2441 61.9599 39.3691 61.2932 39.6191C60.6265 39.8691 60.0224 40.2441 59.4807 40.7441C58.9807 41.2025 58.564 41.8066 58.2307 42.5566C57.8974 43.265 57.7307 44.1191 57.7307 45.1191C57.7307 45.9108 57.939 46.7858 58.3557 47.7441C58.814 48.6608 59.6265 49.3691 60.7932 49.8691L59.7307 51.9316C58.8974 51.5566 58.2099 51.1191 57.6682 50.6191C57.1265 50.0775 56.689 49.4941 56.3557 48.8691C56.0224 48.2441 55.7724 47.6191 55.6057 46.9941C55.4807 46.3275 55.4182 45.7025 55.4182 45.1191C55.4182 43.7441 55.689 42.5566 56.2307 41.5566C56.814 40.515 57.5224 39.6608 58.3557 38.9941C59.2307 38.2858 60.1682 37.765 61.1682 37.4316C62.1682 37.0983 63.1057 36.9316 63.9807 36.9316C66.4807 36.9316 68.4807 37.7025 69.9807 39.2441C71.5224 40.7858 72.2932 42.9941 72.2932 45.8691C72.2932 47.7025 71.814 49.7858 70.8557 52.1191C69.939 54.4525 68.6265 56.8691 66.9182 59.3691C65.2099 61.8691 63.1474 64.3691 60.7307 66.8691C58.314 69.3691 55.6474 71.6816 52.7307 73.8066C54.8557 75.14 57.0849 76.1816 59.4182 76.9316C61.7932 77.6816 64.3349 78.0566 67.0432 78.0566C69.7099 78.0566 72.064 77.5983 74.1057 76.6816C76.189 75.765 77.9807 74.6191 79.4807 73.2441C80.9807 71.8691 82.2099 70.39 83.1682 68.8066C84.1265 67.1816 84.814 65.6816 85.2307 64.3066L87.5432 65.1191ZM27.2307 80.3066C30.6057 80.3066 33.8557 79.8691 36.9807 78.9941C40.1057 78.1191 43.0849 76.89 45.9182 75.3066C43.2932 73.39 40.9182 71.1191 38.7932 68.4941C36.6682 65.8275 34.7724 62.9316 33.1057 59.8066C31.4807 56.6816 30.0849 53.39 28.9182 49.9316C27.7932 46.4316 26.8974 42.9108 26.2307 39.3691C23.3974 40.7441 20.814 42.2025 18.4807 43.7441C16.189 45.2441 14.2307 46.9316 12.6057 48.8066C10.9807 50.64 9.73071 52.7025 8.85571 54.9941C7.98071 57.2858 7.54321 59.89 7.54321 62.8066C7.54321 65.89 8.12655 68.5358 9.29321 70.7441C10.5015 72.9108 12.0432 74.7233 13.9182 76.1816C15.7932 77.5983 17.8974 78.64 20.2307 79.3066C22.564 79.9733 24.8974 80.3066 27.2307 80.3066ZM30.6057 20.8066C30.6057 22.9316 30.6682 25.0983 30.7932 27.3066C30.9599 29.4733 31.2307 31.6608 31.6057 33.8691C34.3974 32.6191 37.1057 31.3066 39.7307 29.9316C42.3557 28.515 44.689 26.9525 46.7307 25.2441C48.7724 23.4941 50.3974 21.5566 51.6057 19.4316C52.8557 17.265 53.4807 14.8275 53.4807 12.1191C53.4807 10.9941 53.2932 9.88997 52.9182 8.80664C52.5849 7.72331 52.0432 6.74414 51.2932 5.86914C50.5849 4.99414 49.6682 4.30664 48.5432 3.80664C47.4599 3.26497 46.1682 2.99414 44.6682 2.99414C42.6682 2.99414 40.7932 3.45247 39.0432 4.36914C37.3349 5.28581 35.8557 6.55664 34.6057 8.18164C33.3557 9.76497 32.3765 11.64 31.6682 13.8066C30.9599 15.9733 30.6057 18.3066 30.6057 20.8066Z" fill="#FF0000"/>
<path d="M87.5432 65.1191C87.0432 66.6191 86.2307 68.2858 85.1057 70.1191C84.0224 71.9525 82.5224 73.6816 80.6057 75.3066C78.7307 76.9316 76.3765 78.2858 73.5432 79.3691C70.7515 80.4525 67.3974 80.9941 63.4807 80.9941C60.6057 80.9941 57.8765 80.6191 55.2932 79.8691C52.7515 79.1191 50.3557 78.0775 48.1057 76.7441C44.4807 78.8691 40.6474 80.5983 36.6057 81.9316C32.6057 83.265 28.4182 83.9316 24.0432 83.9316C19.8765 83.9316 16.2932 83.3691 13.2932 82.2441C10.2932 81.0775 7.81405 79.5566 5.85571 77.6816C3.93905 75.8066 2.52238 73.6816 1.60571 71.3066C0.689046 68.9316 0.230713 66.515 0.230713 64.0566C0.230713 60.3066 0.95988 57.015 2.41821 54.1816C3.87655 51.3483 5.79321 48.8691 8.16821 46.7441C10.5432 44.5775 13.2515 42.6816 16.2932 41.0566C19.3765 39.39 22.5224 37.8483 25.7307 36.4316C25.3974 34.4733 25.1474 32.5358 24.9807 30.6191C24.8557 28.7025 24.7932 26.8066 24.7932 24.9316C24.7932 21.14 25.2932 17.7441 26.2932 14.7441C27.2932 11.7441 28.6682 9.20247 30.4182 7.11914C32.2099 5.03581 34.314 3.45247 36.7307 2.36914C39.189 1.28581 41.8349 0.744141 44.6682 0.744141C46.5432 0.744141 48.1682 1.07747 49.5432 1.74414C50.9599 2.36914 52.1265 3.20247 53.0432 4.24414C53.9599 5.28581 54.6474 6.45247 55.1057 7.74414C55.564 8.99414 55.7932 10.2441 55.7932 11.4941C55.7932 14.8275 55.1057 17.765 53.7307 20.3066C52.3557 22.8483 50.5432 25.1191 48.2932 27.1191C46.0849 29.0775 43.564 30.8275 40.7307 32.3691C37.8974 33.9108 35.0224 35.3483 32.1057 36.6816C32.7724 40.265 33.6682 43.7858 34.7932 47.2441C35.9182 50.7025 37.2515 53.9733 38.7932 57.0566C40.3765 60.14 42.1474 62.9941 44.1057 65.6191C46.1057 68.2025 48.3349 70.4108 50.7932 72.2441C53.4599 70.3275 55.8974 68.2233 58.1057 65.9316C60.314 63.64 62.2099 61.3275 63.7932 58.9941C65.3765 56.6191 66.5849 54.3275 67.4182 52.1191C68.2932 49.9108 68.7307 47.9316 68.7307 46.1816C68.7307 44.89 68.5849 43.8066 68.2932 42.9316C68.0015 42.0566 67.6057 41.3483 67.1057 40.8066C66.6057 40.265 66.0224 39.8691 65.3557 39.6191C64.689 39.3691 63.9807 39.2441 63.2307 39.2441C62.6057 39.2441 61.9599 39.3691 61.2932 39.6191C60.6265 39.8691 60.0224 40.2441 59.4807 40.7441C58.9807 41.2025 58.564 41.8066 58.2307 42.5566C57.8974 43.265 57.7307 44.1191 57.7307 45.1191C57.7307 45.9108 57.939 46.7858 58.3557 47.7441C58.814 48.6608 59.6265 49.3691 60.7932 49.8691L59.7307 51.9316C58.8974 51.5566 58.2099 51.1191 57.6682 50.6191C57.1265 50.0775 56.689 49.4941 56.3557 48.8691C56.0224 48.2441 55.7724 47.6191 55.6057 46.9941C55.4807 46.3275 55.4182 45.7025 55.4182 45.1191C55.4182 43.7441 55.689 42.5566 56.2307 41.5566C56.814 40.515 57.5224 39.6608 58.3557 38.9941C59.2307 38.2858 60.1682 37.765 61.1682 37.4316C62.1682 37.0983 63.1057 36.9316 63.9807 36.9316C66.4807 36.9316 68.4807 37.7025 69.9807 39.2441C71.5224 40.7858 72.2932 42.9941 72.2932 45.8691C72.2932 47.7025 71.814 49.7858 70.8557 52.1191C69.939 54.4525 68.6265 56.8691 66.9182 59.3691C65.2099 61.8691 63.1474 64.3691 60.7307 66.8691C58.314 69.3691 55.6474 71.6816 52.7307 73.8066C54.8557 75.14 57.0849 76.1816 59.4182 76.9316C61.7932 77.6816 64.3349 78.0566 67.0432 78.0566C69.7099 78.0566 72.064 77.5983 74.1057 76.6816C76.189 75.765 77.9807 74.6191 79.4807 73.2441C80.9807 71.8691 82.2099 70.39 83.1682 68.8066C84.1265 67.1816 84.814 65.6816 85.2307 64.3066L87.5432 65.1191ZM27.2307 80.3066C30.6057 80.3066 33.8557 79.8691 36.9807 78.9941C40.1057 78.1191 43.0849 76.89 45.9182 75.3066C43.2932 73.39 40.9182 71.1191 38.7932 68.4941C36.6682 65.8275 34.7724 62.9316 33.1057 59.8066C31.4807 56.6816 30.0849 53.39 28.9182 49.9316C27.7932 46.4316 26.8974 42.9108 26.2307 39.3691C23.3974 40.7441 20.814 42.2025 18.4807 43.7441C16.189 45.2441 14.2307 46.9316 12.6057 48.8066C10.9807 50.64 9.73071 52.7025 8.85571 54.9941C7.98071 57.2858 7.54321 59.89 7.54321 62.8066C7.54321 65.89 8.12655 68.5358 9.29321 70.7441C10.5015 72.9108 12.0432 74.7233 13.9182 76.1816C15.7932 77.5983 17.8974 78.64 20.2307 79.3066C22.564 79.9733 24.8974 80.3066 27.2307 80.3066ZM30.6057 20.8066C30.6057 22.9316 30.6682 25.0983 30.7932 27.3066C30.9599 29.4733 31.2307 31.6608 31.6057 33.8691C34.3974 32.6191 37.1057 31.3066 39.7307 29.9316C42.3557 28.515 44.689 26.9525 46.7307 25.2441C48.7724 23.4941 50.3974 21.5566 51.6057 19.4316C52.8557 17.265 53.4807 14.8275 53.4807 12.1191C53.4807 10.9941 53.2932 9.88997 52.9182 8.80664C52.5849 7.72331 52.0432 6.74414 51.2932 5.86914C50.5849 4.99414 49.6682 4.30664 48.5432 3.80664C47.4599 3.26497 46.1682 2.99414 44.6682 2.99414C42.6682 2.99414 40.7932 3.45247 39.0432 4.36914C37.3349 5.28581 35.8557 6.55664 34.6057 8.18164C33.3557 9.76497 32.3765 11.64 31.6682 13.8066C30.9599 15.9733 30.6057 18.3066 30.6057 20.8066Z" fill="#EAACAC"/>
<path d="M87.5432 65.1191C87.0432 66.6191 86.2307 68.2858 85.1057 70.1191C84.0224 71.9525 82.5224 73.6816 80.6057 75.3066C78.7307 76.9316 76.3765 78.2858 73.5432 79.3691C70.7515 80.4525 67.3974 80.9941 63.4807 80.9941C60.6057 80.9941 57.8765 80.6191 55.2932 79.8691C52.7515 79.1191 50.3557 78.0775 48.1057 76.7441C44.4807 78.8691 40.6474 80.5983 36.6057 81.9316C32.6057 83.265 28.4182 83.9316 24.0432 83.9316C19.8765 83.9316 16.2932 83.3691 13.2932 82.2441C10.2932 81.0775 7.81405 79.5566 5.85571 77.6816C3.93905 75.8066 2.52238 73.6816 1.60571 71.3066C0.689046 68.9316 0.230713 66.515 0.230713 64.0566C0.230713 60.3066 0.95988 57.015 2.41821 54.1816C3.87655 51.3483 5.79321 48.8691 8.16821 46.7441C10.5432 44.5775 13.2515 42.6816 16.2932 41.0566C19.3765 39.39 22.5224 37.8483 25.7307 36.4316C25.3974 34.4733 25.1474 32.5358 24.9807 30.6191C24.8557 28.7025 24.7932 26.8066 24.7932 24.9316C24.7932 21.14 25.2932 17.7441 26.2932 14.7441C27.2932 11.7441 28.6682 9.20247 30.4182 7.11914C32.2099 5.03581 34.314 3.45247 36.7307 2.36914C39.189 1.28581 41.8349 0.744141 44.6682 0.744141C46.5432 0.744141 48.1682 1.07747 49.5432 1.74414C50.9599 2.36914 52.1265 3.20247 53.0432 4.24414C53.9599 5.28581 54.6474 6.45247 55.1057 7.74414C55.564 8.99414 55.7932 10.2441 55.7932 11.4941C55.7932 14.8275 55.1057 17.765 53.7307 20.3066C52.3557 22.8483 50.5432 25.1191 48.2932 27.1191C46.0849 29.0775 43.564 30.8275 40.7307 32.3691C37.8974 33.9108 35.0224 35.3483 32.1057 36.6816C32.7724 40.265 33.6682 43.7858 34.7932 47.2441C35.9182 50.7025 37.2515 53.9733 38.7932 57.0566C40.3765 60.14 42.1474 62.9941 44.1057 65.6191C46.1057 68.2025 48.3349 70.4108 50.7932 72.2441C53.4599 70.3275 55.8974 68.2233 58.1057 65.9316C60.314 63.64 62.2099 61.3275 63.7932 58.9941C65.3765 56.6191 66.5849 54.3275 67.4182 52.1191C68.2932 49.9108 68.7307 47.9316 68.7307 46.1816C68.7307 44.89 68.5849 43.8066 68.2932 42.9316C68.0015 42.0566 67.6057 41.3483 67.1057 40.8066C66.6057 40.265 66.0224 39.8691 65.3557 39.6191C64.689 39.3691 63.9807 39.2441 63.2307 39.2441C62.6057 39.2441 61.9599 39.3691 61.2932 39.6191C60.6265 39.8691 60.0224 40.2441 59.4807 40.7441C58.9807 41.2025 58.564 41.8066 58.2307 42.5566C57.8974 43.265 57.7307 44.1191 57.7307 45.1191C57.7307 45.9108 57.939 46.7858 58.3557 47.7441C58.814 48.6608 59.6265 49.3691 60.7932 49.8691L59.7307 51.9316C58.8974 51.5566 58.2099 51.1191 57.6682 50.6191C57.1265 50.0775 56.689 49.4941 56.3557 48.8691C56.0224 48.2441 55.7724 47.6191 55.6057 46.9941C55.4807 46.3275 55.4182 45.7025 55.4182 45.1191C55.4182 43.7441 55.689 42.5566 56.2307 41.5566C56.814 40.515 57.5224 39.6608 58.3557 38.9941C59.2307 38.2858 60.1682 37.765 61.1682 37.4316C62.1682 37.0983 63.1057 36.9316 63.9807 36.9316C66.4807 36.9316 68.4807 37.7025 69.9807 39.2441C71.5224 40.7858 72.2932 42.9941 72.2932 45.8691C72.2932 47.7025 71.814 49.7858 70.8557 52.1191C69.939 54.4525 68.6265 56.8691 66.9182 59.3691C65.2099 61.8691 63.1474 64.3691 60.7307 66.8691C58.314 69.3691 55.6474 71.6816 52.7307 73.8066C54.8557 75.14 57.0849 76.1816 59.4182 76.9316C61.7932 77.6816 64.3349 78.0566 67.0432 78.0566C69.7099 78.0566 72.064 77.5983 74.1057 76.6816C76.189 75.765 77.9807 74.6191 79.4807 73.2441C80.9807 71.8691 82.2099 70.39 83.1682 68.8066C84.1265 67.1816 84.814 65.6816 85.2307 64.3066L87.5432 65.1191ZM27.2307 80.3066C30.6057 80.3066 33.8557 79.8691 36.9807 78.9941C40.1057 78.1191 43.0849 76.89 45.9182 75.3066C43.2932 73.39 40.9182 71.1191 38.7932 68.4941C36.6682 65.8275 34.7724 62.9316 33.1057 59.8066C31.4807 56.6816 30.0849 53.39 28.9182 49.9316C27.7932 46.4316 26.8974 42.9108 26.2307 39.3691C23.3974 40.7441 20.814 42.2025 18.4807 43.7441C16.189 45.2441 14.2307 46.9316 12.6057 48.8066C10.9807 50.64 9.73071 52.7025 8.85571 54.9941C7.98071 57.2858 7.54321 59.89 7.54321 62.8066C7.54321 65.89 8.12655 68.5358 9.29321 70.7441C10.5015 72.9108 12.0432 74.7233 13.9182 76.1816C15.7932 77.5983 17.8974 78.64 20.2307 79.3066C22.564 79.9733 24.8974 80.3066 27.2307 80.3066ZM30.6057 20.8066C30.6057 22.9316 30.6682 25.0983 30.7932 27.3066C30.9599 29.4733 31.2307 31.6608 31.6057 33.8691C34.3974 32.6191 37.1057 31.3066 39.7307 29.9316C42.3557 28.515 44.689 26.9525 46.7307 25.2441C48.7724 23.4941 50.3974 21.5566 51.6057 19.4316C52.8557 17.265 53.4807 14.8275 53.4807 12.1191C53.4807 10.9941 53.2932 9.88997 52.9182 8.80664C52.5849 7.72331 52.0432 6.74414 51.2932 5.86914C50.5849 4.99414 49.6682 4.30664 48.5432 3.80664C47.4599 3.26497 46.1682 2.99414 44.6682 2.99414C42.6682 2.99414 40.7932 3.45247 39.0432 4.36914C37.3349 5.28581 35.8557 6.55664 34.6057 8.18164C33.3557 9.76497 32.3765 11.64 31.6682 13.8066C30.9599 15.9733 30.6057 18.3066 30.6057 20.8066Z" fill="white"/>
</g>
</svg>
