<svg width="606" height="606" viewBox="0 0 606 606" fill="none" xmlns="http://www.w3.org/2000/svg">
<g id="morphc">
<rect width="606" height="606" fill="white"/>
<path id="end" d="M112.641 399.524C93.853 340.936 137.558 281.024 199.084 281.024H242.122C284.396 281.024 321.787 253.61 334.503 213.295L353.098 154.342C355.248 147.524 362.873 144.118 369.386 147.066L373.892 149.105C406.694 163.949 444.385 163.515 476.836 147.918C483.464 144.733 491.287 148.843 492.425 156.108L502.836 222.578C507.361 251.471 509.021 280.741 507.791 309.96L505.641 361.024L490.141 375.524L505.641 385.836V445.024C505.641 450.547 501.164 455.024 495.641 455.024H364.141L343.641 434.524L341.744 435.32C266.562 466.884 182.063 468.037 106.047 438.535C100.594 436.419 97 431.169 97 425.319V405.524L112.641 399.524Z" fill="black"/>
<path id="start" d="M166.493 397.999C186.695 382.438 211.478 374 236.978 374C271.551 374 302.379 352.233 313.949 319.653L324.071 291.147C333.374 264.949 347.515 240.731 365.759 219.753L429.9 146C461.93 159.885 485.779 187.748 494.555 221.537L500.65 245L481.496 450.428C481.016 455.569 476.702 459.5 471.539 459.5H467.15L457.65 299C437.597 293.397 416.28 301.966 405.684 319.889L346.376 420.212C331.981 444.562 305.797 459.5 277.51 459.5H116.02C106.474 459.5 102.355 447.402 109.917 441.578L166.493 397.999Z" fill="black"/>
</g>
</svg>
