<svg width="606" height="606" viewBox="0 0 606 606" fill="none" xmlns="http://www.w3.org/2000/svg">
<g id="morphd">
<rect width="606" height="606" fill="white"/>
<path id="end" d="M146.044 300C99.9228 335 103.044 449 103.044 449H293.544L332.044 419.5L354.044 449H503.044V158H354.044L324.544 270.5C324.544 270.5 192.165 265 146.044 300Z" fill="black"/>
<path id="start" d="M182 369.985C117.5 400.985 103 448.985 103 448.985C103 448.985 252 446.574 287 446.574C410.5 446.574 383.5 296.485 442 296.485C474.5 296.485 468.5 448.985 468.5 448.985H503V157.985C503 157.985 430.5 148.485 387 188.485C343.5 228.485 356.5 287.485 322 325.485C287.5 363.485 246.5 338.985 182 369.985Z" fill="black"/>
</g>
</svg>
