<svg width="606" height="606" viewBox="0 0 606 606" fill="none" xmlns="http://www.w3.org/2000/svg">
<g id="Frame 41">
<rect width="606" height="606" fill="white"/>
<path id="start" d="M200 242.873L265 266.873M406 242.873L341 266.873M200 310.873L265 286.873M406 310.873L341 286.873M287 371.873H319C331.15 371.873 341 362.023 341 349.873V202.873C341 190.722 331.15 180.873 319 180.873H287C274.85 180.873 265 190.722 265 202.873V349.873C265 362.023 274.85 371.873 287 371.873ZM265 192.412L157.87 133.98C106.559 105.994 44 143.132 44 201.579V337.26C44 394.263 103.785 431.505 154.949 406.372L265 352.312V192.412ZM341 192.412L448.13 133.98C499.441 105.994 562 143.132 562 201.579V337.26C562 394.263 502.215 431.505 451.051 406.372L341 352.312V192.412Z" stroke="black" stroke-width="6"/>
<g id="end">
<path d="M265 215.873C265 203.722 274.849 193.873 287 193.873H319C331.15 193.873 341 203.722 341 215.873V336.873C341 349.023 331.15 358.873 319 358.873H287C274.849 358.873 265 349.023 265 336.873V215.873Z" stroke="black" stroke-width="6"/>
<path d="M43.7804 123.864C43.8996 123.324 44.4506 122.974 44.9904 123.095C140.081 144.448 189.507 162.391 265 211.805V329.778C183.415 376.974 135.083 394.32 44.9583 409.709C44.4293 409.8 43.9091 409.445 43.7983 408.92C20.0149 296.14 19.6368 233.323 43.7804 123.864Z" stroke="black" stroke-width="6"/>
<path d="M562.231 123.757C562.101 123.261 561.603 122.933 561.097 123.011C466.289 137.611 415.959 152.736 341.386 211.501C341.145 211.69 341 211.984 341 212.29V329.214C341 329.564 341.188 329.892 341.487 330.073C415.95 375.132 465.649 390.954 561.068 409.69C561.585 409.792 562.108 409.465 562.242 408.955C591.146 299.383 591.668 236.638 562.231 123.757Z" stroke="black" stroke-width="6"/>
<path d="M154.958 418.181L265 330.873L195.113 418.181L220.211 491.021L167.313 558.873L126 519.958L167.313 472.063L154.958 418.181Z" stroke="black" stroke-width="6"/>
<path d="M451.041 418.181L341 330.873L410.886 418.181L385.788 491.021L438.686 558.873L480 519.958L438.686 472.063L451.041 418.181Z" stroke="black" stroke-width="6"/>
</g>
</g>
</svg>
