<svg width="285" height="6" viewBox="0 0 285 6" fill="none" xmlns="http://www.w3.org/2000/svg">
<path d="M111.786 0.531239L114.216 0.554677C115.925 0.572942 117.633 0.8169 119.333 1.28905L121.763 1.96874L124.193 2.64061C125.672 3.05187 127.144 3.12531 128.614 2.86718L131.044 2.4453L133.474 2.01561C135.147 1.72183 136.822 1.5711 138.497 1.55468L140.927 1.52343L143.357 1.49999C144.967 1.48421 146.582 1.44497 148.193 1.3828L153.052 1.1953C154.721 1.13103 156.391 1.19856 158.06 1.39061L162.919 1.95311C164.501 2.13527 166.088 2.22048 167.669 2.21874H172.528C174.09 2.21689 175.652 2.07816 177.216 1.81249L182.083 0.984364C183.862 0.682621 185.64 0.814686 187.403 1.36718L189.833 2.1328L192.263 2.89061C193.704 3.34261 195.133 3.37361 196.568 2.99218L198.997 2.35155L201.427 1.70311C203.18 1.2364 204.946 1.14676 206.708 1.43749L209.138 1.83593L211.568 2.24218C213.169 2.50653 214.772 2.72532 216.372 2.89843L218.802 3.15624L221.232 3.42186C222.817 3.59327 224.405 3.67619 225.989 3.67968L230.849 3.6953C232.434 3.69879 234.021 3.61866 235.607 3.46093L240.466 2.97655C242.053 2.81867 243.643 2.58688 245.232 2.27343L247.661 1.78905L250.091 1.31249C251.881 0.959063 253.675 1.0707 255.45 1.64061L260.31 3.20311C261.808 3.68467 263.298 3.85548 264.778 3.72655L269.638 3.30468C271.316 3.15825 272.998 3.15836 274.677 3.31249L279.536 3.76561C280.322 3.83784 280.916 3.84927 281.333 3.8203C281.541 3.80585 281.684 3.78074 281.771 3.7578C281.788 3.75314 281.8 3.74545 281.81 3.74218L282.263 3.37499L283.232 2.52343L283.513 2.26561H283.997V3.37499L284.568 4.0078L283.607 4.86718L283.583 4.8828L283.568 4.89843L283.036 5.32811C282.796 5.52259 282.518 5.63198 282.278 5.6953C282.031 5.76061 281.758 5.79264 281.474 5.81249C280.904 5.85209 280.19 5.83437 279.357 5.7578L274.497 5.30468C272.938 5.16136 271.377 5.16104 269.818 5.29686L264.95 5.71874C263.193 5.87155 261.44 5.6683 259.7 5.10936L254.841 3.54686C253.377 3.07666 251.93 2.9877 250.482 3.27343L248.052 3.74999L245.622 4.23436C243.972 4.56004 242.32 4.80437 240.669 4.96874L235.81 5.45311C234.157 5.61748 232.501 5.69881 230.849 5.6953L225.982 5.67968C224.328 5.67592 222.674 5.585 221.021 5.40624L218.591 5.14843L216.161 4.8828C214.523 4.70571 212.885 4.48122 211.247 4.21093L208.818 3.81249L206.388 3.40624C204.911 3.16235 203.428 3.2373 201.943 3.6328L197.083 4.92968C195.279 5.40958 193.466 5.36779 191.669 4.80468L186.81 3.27343C185.335 2.81111 183.87 2.71294 182.411 2.96093L177.552 3.78905C175.879 4.07327 174.204 4.21689 172.528 4.21874H167.669C166.01 4.22057 164.351 4.12842 162.693 3.93749L157.833 3.37499C156.264 3.19426 154.691 3.13475 153.122 3.1953L148.263 3.3828C146.635 3.4456 145.008 3.48402 143.38 3.49999L140.95 3.52343L138.521 3.55468C136.956 3.57 135.384 3.70921 133.818 3.98436L128.958 4.84374C127.19 5.1539 125.42 5.0588 123.661 4.5703L121.232 3.89843L118.802 3.21874C117.264 2.79127 115.729 2.57135 114.2 2.55468L111.763 2.53124L109.333 2.49999C107.816 2.48412 106.292 2.69668 104.763 3.14061L102.333 3.85155L99.9034 4.55468C98.169 5.05801 96.4248 5.23112 94.6769 5.0703L92.2472 4.84374L89.8175 4.62499C88.2277 4.47857 86.6334 4.40685 85.0441 4.40624L82.6144 4.39843H80.1847C78.6154 4.39793 77.0446 4.5158 75.4738 4.74999L73.0441 5.11718L70.6144 5.47655C68.8618 5.73778 67.1093 5.64785 65.3644 5.21093L60.505 3.99218C58.9831 3.61108 57.4635 3.47754 55.9503 3.57811L53.5206 3.73436L51.0909 3.89843C49.4083 4.0101 47.7256 3.9584 46.0441 3.74999L43.6144 3.45311L41.1847 3.14843C39.7099 2.96564 38.2299 3.09717 36.7394 3.55468L34.3097 4.30468L31.88 5.04686C30.0594 5.60567 28.2268 5.58389 26.4113 4.97655L21.5519 3.35155C20.0641 2.85353 18.5896 2.69248 17.1222 2.85936L14.6925 3.1328L12.2628 3.41405C10.6152 3.60169 8.17691 3.78555 4.96594 3.97655L0.153442 4.26561H-0.00280762V2.26561H0.0362549L4.84875 1.98436C8.05074 1.79389 10.444 1.60319 12.0363 1.42186L14.4659 1.14843L16.8956 0.867177C18.6671 0.665716 20.4336 0.866938 22.1847 1.45311L27.0441 3.07811C28.4678 3.55471 29.8754 3.57599 31.2941 3.14061L33.7238 2.39061L36.1534 1.64843C37.9017 1.11181 39.6628 0.945912 41.4269 1.16405L43.8566 1.46874L46.2941 1.76561C47.8496 1.95818 49.4036 2.00159 50.9581 1.89843L53.3878 1.74218L55.8175 1.57811C57.5442 1.46335 59.2715 1.62454 60.9894 2.05468L65.8488 3.27343C67.3429 3.64757 68.831 3.72126 70.3175 3.49999L72.7472 3.1328L75.1769 2.77343C76.8443 2.52485 78.5156 2.39793 80.1847 2.39843H82.6144L85.0441 2.40624C86.6941 2.40687 88.3475 2.48092 89.9972 2.6328L92.4269 2.85936L94.8566 3.07811C96.3473 3.21541 97.8445 3.06965 99.3488 2.6328L101.778 1.92968L104.208 1.21874C105.918 0.722373 107.635 0.481731 109.357 0.499989L111.786 0.531239Z" fill="white"/>
</svg>
